<svg id="Layer_2" data-name="Layer 2" xmlns="http://www.w3.org/2000/svg" viewBox="0 0 37.38 46.72">
  <defs>
    <style>
      .cls-1 {
        fill: #fff;
      }
    </style>
  </defs>
  <title>coding</title>
  <g>
    <path class="cls-1" d="M1375.8,1271.11h-29.59a3.9,3.9,0,0,0-3.89,3.89v21a3.9,3.9,0,0,0,3.89,3.89h10.65l-1.11,3.89h-2.53v1.56h15.57v-1.56h-2.53l-1.11-3.89h10.65a3.9,3.9,0,0,0,3.89-3.89v-21A3.9,3.9,0,0,0,1375.8,1271.11Zm-18.43,32.7,1.11-3.89h5.06l1.11,3.89h-7.28Zm20.77-7.79a2.34,2.34,0,0,1-2.34,2.34h-29.59a2.34,2.34,0,0,1-2.34-2.34v-1.56h34.26V1296Zm0-3.11h-34.26V1275a2.34,2.34,0,0,1,2.34-2.34h29.59a2.34,2.34,0,0,1,2.34,2.34v17.91Z" transform="translate(-1342.32 -1271.11)"/>
    <path class="cls-1" d="M1367.23,1306.92h-21.8a0.78,0.78,0,0,0-.78.78V1317a0.78,0.78,0,0,0,.78.78h21.8a0.78,0.78,0,0,0,.78-0.78v-9.34A0.78,0.78,0,0,0,1367.23,1306.92Zm-0.78,9.34h-20.25v-7.79h20.25v7.79Z" transform="translate(-1342.32 -1271.11)"/>
    <rect class="cls-1" x="5.45" y="42.05" width="1.56" height="1.56"/>
    <rect class="cls-1" x="5.45" y="38.93" width="1.56" height="1.56"/>
    <rect class="cls-1" x="8.57" y="38.93" width="1.56" height="1.56"/>
    <rect class="cls-1" x="11.68" y="38.93" width="1.56" height="1.56"/>
    <rect class="cls-1" x="17.91" y="38.93" width="1.56" height="1.56"/>
    <rect class="cls-1" x="14.79" y="38.93" width="1.56" height="1.56"/>
    <rect class="cls-1" x="21.02" y="42.05" width="1.56" height="1.56"/>
    <rect class="cls-1" x="21.02" y="38.93" width="1.56" height="1.56"/>
    <rect class="cls-1" x="8.57" y="42.05" width="10.9" height="1.56"/>
    <path class="cls-1" d="M1373.46,1306.92a3.89,3.89,0,0,0-3.89,3.89v3.11a3.89,3.89,0,0,0,7.79,0v-3.11A3.89,3.89,0,0,0,1373.46,1306.92Zm2.34,7a2.34,2.34,0,1,1-4.67,0v-3.11a2.34,2.34,0,1,1,4.67,0v3.11Z" transform="translate(-1342.32 -1271.11)"/>
    <rect class="cls-1" x="30.37" y="38.93" width="1.56" height="1.56"/>
    <rect class="cls-1" x="1355.33" y="1282.8" width="11.33" height="1.56" transform="translate(-1589.78 967.84) rotate(-74.03)"/>
    <path class="cls-1" d="M1356.83,1280.27l-1-1.2-4.67,3.89a0.78,0.78,0,0,0-.1,1.1l0.1,0.1,4.67,3.89,1-1.2-4-3.3Z" transform="translate(-1342.32 -1271.11)"/>
    <path class="cls-1" d="M1370.95,1283.07l-0.1-.1-4.67-3.89-1,1.2,4,3.3-4,3.3,1,1.2,4.67-3.89A0.78,0.78,0,0,0,1370.95,1283.07Z" transform="translate(-1342.32 -1271.11)"/>
  </g>
</svg>
