<svg id="Layer_2" data-name="Layer 2" xmlns="http://www.w3.org/2000/svg" viewBox="0 0 45.94 45.94">
  <defs>
    <style>
      .cls-1 {
        fill: #fff;
      }
    </style>
  </defs>
  <title>graphic-design</title>
  <g>
    <path class="cls-1" d="M1375.9,1033.47a0.9,0.9,0,1,0,.9.9A0.9,0.9,0,0,0,1375.9,1033.47Z" transform="translate(-1337.14 -1024.49)"/>
    <path class="cls-1" d="M1344.32,1033.47a0.9,0.9,0,1,0,.9.9A0.9,0.9,0,0,0,1344.32,1033.47Z" transform="translate(-1337.14 -1024.49)"/>
    <path class="cls-1" d="M1382.18,1044.23h-1.07a20.38,20.38,0,0,0-2.42-7.33,0.9,0.9,0,0,0-1.57.87,18.6,18.6,0,0,1,2.18,6.46h-0.71a0.9,0.9,0,0,0-.9.9v3.59a0.9,0.9,0,0,0,.9.9h3.59a0.9,0.9,0,0,0,.9-0.9v-3.59A0.9,0.9,0,0,0,1382.18,1044.23Zm-0.9,3.59h-1.79V1046h1.79v1.79Z" transform="translate(-1337.14 -1024.49)"/>
    <path class="cls-1" d="M1370,1050.75v-0.13l0-.06v0l0-.08h0l0-.09-9-16.42a0.9,0.9,0,0,0-1.57,0l-9,16.42,0,0.09h0l0,0.08v0l0,0.06V1051l0,0.06v0l3.24,8.58a2.69,2.69,0,0,0,.3,5v4.91a0.9,0.9,0,0,0,.9.9h10.77a0.9,0.9,0,0,0,.9-0.9v-4.91a2.69,2.69,0,0,0,.29-5l3.24-8.58v0l0-.06v-0.27Zm-9.87-.86a0.9,0.9,0,1,1-.9.9A0.9,0.9,0,0,1,1360.11,1049.89Zm4.49,18.75h-9v-3.86h9v3.86Zm1.53-5.92a0.89,0.89,0,0,1-.63.26h-10.77a0.9,0.9,0,0,1,0-1.79h10.77A0.9,0.9,0,0,1,1366.13,1062.72Zm-1.25-3.33h-9.53l-2.91-7.72h2.29a0.9,0.9,0,0,0,0-1.79h-2.08l6.56-12v10.37a2.69,2.69,0,1,0,1.79,0v-10.37l6.56,12h-2.08a0.9,0.9,0,1,0,0,1.79h2.29Z" transform="translate(-1337.14 -1024.49)"/>
    <path class="cls-1" d="M1342.75,1036.56a0.9,0.9,0,0,0-1.22.35,20.38,20.38,0,0,0-2.42,7.33H1338a0.9,0.9,0,0,0-.9.9v3.59a0.9,0.9,0,0,0,.9.9h3.59a0.9,0.9,0,0,0,.9-0.9v-3.59a0.9,0.9,0,0,0-.9-0.9h-0.71a18.6,18.6,0,0,1,2.18-6.46A0.9,0.9,0,0,0,1342.75,1036.56Zm-2,11.27h-1.79V1046h1.79v1.79Z" transform="translate(-1337.14 -1024.49)"/>
    <path class="cls-1" d="M1380.39,1024.49a2.7,2.7,0,0,0-2.54,1.79h-15v-0.9a0.9,0.9,0,0,0-.9-0.9h-3.59a0.9,0.9,0,0,0-.9.9v0.9h-15a2.69,2.69,0,1,0,0,1.79h9a19.87,19.87,0,0,0-5.11,3.06,0.9,0.9,0,1,0,1.16,1.37,20.23,20.23,0,0,1,10-4.24V1029a0.9,0.9,0,0,0,.9.9h3.59a0.9,0.9,0,0,0,.9-0.9v-0.71a20.23,20.23,0,0,1,10,4.24,0.9,0.9,0,0,0,1.16-1.37,19.87,19.87,0,0,0-5.11-3.06h9A2.69,2.69,0,1,0,1380.39,1024.49Zm-40.56,3.59a0.9,0.9,0,1,1,.9-0.9A0.9,0.9,0,0,1,1339.83,1028.08Zm21.18-.9v0.9h-1.79v-1.79H1361v0.9Zm19.38,0.9a0.9,0.9,0,1,1,.9-0.9A0.9,0.9,0,0,1,1380.39,1028.08Z" transform="translate(-1337.14 -1024.49)"/>
  </g>
</svg>
