<svg id="Layer_1" data-name="Layer 1" xmlns="http://www.w3.org/2000/svg" viewBox="0 0 167.22 27.94">
  <defs>
    <style>
      .cls-1 {
        fill: #fff;
      }

      .cls-2 {
        opacity: 0.5;
      }
    </style>
  </defs>
  <title>logo-sm</title>
  <g>
    <g>
      <path class="cls-1" d="M1324.64,13.93v4.4H1324a1.92,1.92,0,0,0-1.26.36,2,2,0,0,0-.59,1.09,14.79,14.79,0,0,0-.11,2.21,9.06,9.06,0,0,1-.38,2.84,3.16,3.16,0,0,1-.77,1.28,4.35,4.35,0,0,1-1.24.74,4.5,4.5,0,0,1,1.34.87,3.6,3.6,0,0,1,.75,1.37,10,10,0,0,1,.31,2.93,9.18,9.18,0,0,0,.19,2.36,1.31,1.31,0,0,0,.62.78,4.38,4.38,0,0,0,1.75.23v4.35H1323a8.71,8.71,0,0,1-3.72-.57,3.3,3.3,0,0,1-1.57-1.67,8.73,8.73,0,0,1-.47-3.28q0-.48,0-1,0-.29,0-0.6a6.16,6.16,0,0,0-.28-2.22,1.9,1.9,0,0,0-.81-1,3.41,3.41,0,0,0-1.54-.32V24.56a3,3,0,0,0,1.55-.32,2,2,0,0,0,.79-1,6.63,6.63,0,0,0,.27-2.25V20.54q0-.31,0-0.62a10.71,10.71,0,0,1,.4-3.44,3.68,3.68,0,0,1,1.1-1.62,3.49,3.49,0,0,1,1.42-.64,11.91,11.91,0,0,1,2.73-.28h1.81Z" transform="translate(-1314.6 -13.93)"/>
      <path class="cls-1" d="M1343.23,13.93a11.91,11.91,0,0,1,2.73.28,3.49,3.49,0,0,1,1.42.64,3.68,3.68,0,0,1,1.1,1.62,10.73,10.73,0,0,1,.4,3.44q0,0.31,0,.62V21a6.63,6.63,0,0,0,.27,2.25,2,2,0,0,0,.79,1,3,3,0,0,0,1.55.32v4.61a3.41,3.41,0,0,0-1.54.32,1.9,1.9,0,0,0-.81,1,6.16,6.16,0,0,0-.28,2.22q0,0.31,0,.6c0,0.32,0,.64,0,1a8.73,8.73,0,0,1-.47,3.28,3.3,3.3,0,0,1-1.57,1.67,8.71,8.71,0,0,1-3.72.57h-1.69V35.39a4.38,4.38,0,0,0,1.75-.23,1.31,1.31,0,0,0,.62-0.78A9.18,9.18,0,0,0,1344,32a10,10,0,0,1,.31-2.93,3.6,3.6,0,0,1,.74-1.37,4.52,4.52,0,0,1,1.34-.87,4.34,4.34,0,0,1-1.24-.74,3.16,3.16,0,0,1-.77-1.28A9,9,0,0,1,1344,22a14.92,14.92,0,0,0-.11-2.21,2,2,0,0,0-.59-1.09,1.91,1.91,0,0,0-1.26-.36h-0.6v-4.4h1.81Z" transform="translate(-1314.6 -13.93)"/>
    </g>
    <g>
      <path class="cls-1" d="M1323.07,32.6V21.53h5.7a8.28,8.28,0,0,1,2.42.27,2.58,2.58,0,0,1,1.35,1,3.13,3.13,0,0,1-1,4.47,4.14,4.14,0,0,1-1.2.44,2.31,2.31,0,0,1,1.44,1,4.31,4.31,0,0,1,.48.69L1334,32.6h-3.87l-1.83-3.38a2.58,2.58,0,0,0-.62-0.85,1.44,1.44,0,0,0-.84-0.26h-0.3V32.6h-3.44Zm3.44-6.59H1328a5.14,5.14,0,0,0,.91-0.15,0.9,0.9,0,0,0,.55-0.35,1.12,1.12,0,0,0-.12-1.47,2.06,2.06,0,0,0-1.28-.29h-1.5V26Z" transform="translate(-1314.6 -13.93)"/>
      <path class="cls-1" d="M1340.6,28.07l3,0.91a5.51,5.51,0,0,1-1,2.11,4.13,4.13,0,0,1-1.61,1.28,6,6,0,0,1-2.45.43,7.12,7.12,0,0,1-2.95-.52,4.68,4.68,0,0,1-2-1.85,6.25,6.25,0,0,1-.83-3.38,5.75,5.75,0,0,1,1.46-4.22,6.65,6.65,0,0,1,7.42-.63,5,5,0,0,1,1.78,2.6l-3,.67a2.61,2.61,0,0,0-.33-0.74,2,2,0,0,0-.7-0.6,2.16,2.16,0,0,0-2.71.72,4,4,0,0,0-.47,2.18,4.14,4.14,0,0,0,.56,2.52,2.21,2.21,0,0,0,3.05.13A3.41,3.41,0,0,0,1340.6,28.07Z" transform="translate(-1314.6 -13.93)"/>
    </g>
    <g class="cls-2">
      <path class="cls-1" d="M1378.27,27.14a4.81,4.81,0,0,1,.22,1.27,4.28,4.28,0,0,1-1,2.54,20.75,20.75,0,0,1-1.89,2,3,3,0,0,0-1,1.39c0,0.18.13,0.27,0.39,0.27q1.86,0,6.23-3h0.07a0.15,0.15,0,0,1,.19.18q0,0.53-3,1.88a12.72,12.72,0,0,1-3.71,1.31,1.23,1.23,0,0,1-.88-0.38,1.2,1.2,0,0,1-.38-0.88q0-1.12,2.17-3.47t2.17-3l0-.15a5.06,5.06,0,0,1-.62.05q-1.15,0-1.15-.54a0.5,0.5,0,0,1,.57-0.57,2.8,2.8,0,0,1,1.55.69,6.18,6.18,0,0,0,3.78-2.32,6.24,6.24,0,0,0,1.85-4,3.42,3.42,0,0,0-.85-2.09,19.86,19.86,0,0,0-4.45,4.26l-3.67,5Q1369.35,35,1362.35,35a8.79,8.79,0,0,1-3-.48q-1.85-.67-1.85-2a1.52,1.52,0,0,1,.3-0.9,0.92,0.92,0,0,1,.78-0.42,0.86,0.86,0,0,1,.63.28,0.9,0.9,0,0,1,.28.65,0.77,0.77,0,0,1-.81.92,1.34,1.34,0,0,1-.45-0.08q0.47,1.77,4,1.77a8.86,8.86,0,0,0,5.19-1.84,25.53,25.53,0,0,0,4-3.91l4.61-5.3a32.27,32.27,0,0,1,6.65-5.6,13,13,0,0,0-7.81-2.36,17.38,17.38,0,0,0-7.75,1.85,12,12,0,0,0-5.79,5.34,3.64,3.64,0,0,0-.31,1.61,2.55,2.55,0,0,0,1.27,2.32,5,5,0,0,0,2.67.65,12.85,12.85,0,0,0,5.83-1.53q3.55-1.8,3.55-4.34a1.45,1.45,0,0,0-.93-1.28,3.58,3.58,0,0,0-1.65-.39q-3.75,0-8,4.86l-0.18.08-0.15-.15,0.07-.18a10,10,0,0,1,3.66-3.38,9.39,9.39,0,0,1,4.69-1.54,3.49,3.49,0,0,1,1.85.5,1.77,1.77,0,0,1,1,1.55q0,2.51-3.51,4.59a11.54,11.54,0,0,1-5.83,1.86,5.68,5.68,0,0,1-3.14-.88,3.09,3.09,0,0,1-1.58-2.71,4.11,4.11,0,0,1,.39-1.84,12.3,12.3,0,0,1,5.94-5.45,17.83,17.83,0,0,1,7.92-1.9,13.13,13.13,0,0,1,8.11,2.51q3.18-2.15,3.31-2.15a0.2,0.2,0,0,1,.19.19l-3.29,2.26a5.8,5.8,0,0,1,1.55,3.44,4.45,4.45,0,0,1-2.17,3.88A14.05,14.05,0,0,1,1378.27,27.14Zm-0.74-.33a1.86,1.86,0,0,0-.85-0.35l-0.26.11v0q0,0.26.63,0.26A3,3,0,0,0,1377.53,26.81Z" transform="translate(-1314.6 -13.93)"/>
      <path class="cls-1" d="M1387.72,32l0.14,0.18-0.08.15a4,4,0,0,1-2.23.53q-2.46,2.24-4.09,2.24a1.28,1.28,0,0,1-1.48-1.42q0-1.55,2.06-3a6.4,6.4,0,0,1,3.54-1.31,1.68,1.68,0,0,1,.9.24,0.89,0.89,0,0,1,.47.78,3.5,3.5,0,0,1-1,2,2.56,2.56,0,0,0,1-.2A3.84,3.84,0,0,1,1387.72,32Zm-6.42,2.71a5.87,5.87,0,0,0,3.19-1.51q2.06-1.58,2.06-2.74a0.66,0.66,0,0,0-.79-0.69q-1,0-3,1.75t-2,2.7A0.47,0.47,0,0,0,1381.29,34.71Z" transform="translate(-1314.6 -13.93)"/>
      <path class="cls-1" d="M1393.44,32.1l0.09,0.13q0,0.63-2.19,1.75a7.93,7.93,0,0,1-2.85,1.07,0.76,0.76,0,0,1-.85-0.88,2.6,2.6,0,0,1,.53-1.44l1-1.21a16.77,16.77,0,0,1-1.46.89l-0.15-.18,0.08-.15,1.93-1.24a9,9,0,0,0,1.73-1.47l2.7-3.24a52.09,52.09,0,0,1,4.45-4.68q2.67-2.37,4.1-2.37a0.87,0.87,0,0,1,.67.3,1,1,0,0,1,.28.7q0,1.4-2,3.08a32.49,32.49,0,0,1-4.1,2.73,33.9,33.9,0,0,0-3.24,2,27.72,27.72,0,0,0-2.75,2.93l-2.58,3.09a2.1,2.1,0,0,0-.3.49l0.23,0.15a5.11,5.11,0,0,0,2.75-1.16Q1393.4,32.1,1393.44,32.1Zm1-4.76q4.14-2.58,5-3.23,3.63-2.6,3.63-4a0.58,0.58,0,0,0-.67-0.65q-1.54,0-4.36,3.24Q1397.28,23.6,1394.46,27.34Z" transform="translate(-1314.6 -13.93)"/>
      <path class="cls-1" d="M1392.79,33.66q0-1.56,2.06-3a6.38,6.38,0,0,1,3.55-1.31q1.36,0,1.36,1a1.94,1.94,0,0,1-.09.55q0.34-.34,1.42-1.59h1.55L1400.27,32a11.9,11.9,0,0,0-1.94,2.46l0.22,0.18a5.18,5.18,0,0,0,2.42-1.22q1.73-1.25,1.79-1.26l0.16,0.2q0,0.46-2,1.61a7.56,7.56,0,0,1-2.57,1.13,0.74,0.74,0,0,1-.81-0.86,2.27,2.27,0,0,1,.11-0.7,6,6,0,0,1-3.37,1.57A1.25,1.25,0,0,1,1392.79,33.66Zm1.32,1a6,6,0,0,0,3.2-1.51q2.05-1.57,2.05-2.73a0.65,0.65,0,0,0-.78-0.69q-1,0-3,1.75t-2,2.69A0.48,0.48,0,0,0,1394.11,34.69Z" transform="translate(-1314.6 -13.93)"/>
      <path class="cls-1" d="M1407.38,29.88l-0.15-.12q-0.82,0-4.37,2.66l-0.15-.16,0.07-.13a18.73,18.73,0,0,1,2.23-1.67,5.41,5.41,0,0,1,2.44-1.05,0.62,0.62,0,0,1,.67.72,3.11,3.11,0,0,1-.54,1.54q2.85-2.25,4.21-2.25a0.72,0.72,0,0,1,.74.87,4,4,0,0,1-1.36,2.48,6.9,6.9,0,0,0-1.36,1.65q0,0.18.24,0.18a5.83,5.83,0,0,0,2.8-1.23q1.83-1.23,1.88-1.24l0.08,0.13q0,0.57-2.2,1.71a8.26,8.26,0,0,1-2.83,1.11,0.79,0.79,0,0,1-.84-0.94,4.27,4.27,0,0,1,1.21-2.29l1.88-2-0.23-.07q-2.25,0-7.07,5.34h-1.52Q1405.26,32.63,1407.38,29.88Z" transform="translate(-1314.6 -13.93)"/>
      <path class="cls-1" d="M1414,33.65q0-1.53,2.06-3a6.24,6.24,0,0,1,3.49-1.32,1.16,1.16,0,0,1,1.36.84l7.92-9.13h1.81l-6.15,7q-5.14,5.91-5.26,6.3l0.24,0.15a5.26,5.26,0,0,0,2.71-1.19,23.08,23.08,0,0,1,2-1.27l0.07,0.13q0,0.51-2.24,1.67a8.41,8.41,0,0,1-2.79,1.13,0.62,0.62,0,0,1-.77-0.62,1.93,1.93,0,0,1,.22-0.8,6.09,6.09,0,0,1-3.33,1.42A1.2,1.2,0,0,1,1414,33.65Zm1.32,1a5.91,5.91,0,0,0,3.2-1.5q2.06-1.57,2.06-2.72a0.66,0.66,0,0,0-.8-0.68q-1,0-3,1.74t-2,2.68A0.47,0.47,0,0,0,1415.32,34.68Z" transform="translate(-1314.6 -13.93)"/>
      <path class="cls-1" d="M1439,24.84a6,6,0,0,0,1.25-.13,46.07,46.07,0,0,1,7.21-5.72q5.18-3.39,8.19-3.39,2,0,2,1.21,0,3-8.26,6.25a39.44,39.44,0,0,1-7.35,1.86,20.21,20.21,0,0,0-3,3.67q-1.88,2.79-1.88,4.2a1.67,1.67,0,0,0,1.18,1.51,4.89,4.89,0,0,0,2,.42,11.09,11.09,0,0,0,5.3-1.66q3.31-1.86,3.31-4a1.19,1.19,0,0,0-.62-1.05,2.37,2.37,0,0,0-1.23-.31,7.82,7.82,0,0,0-4,1.39,19.7,19.7,0,0,0-3.22,2.58L1438.48,33l-0.13-.15,0.05-.13a11.16,11.16,0,0,1,3.87-3.59,9.8,9.8,0,0,1,4.91-1.79,2.38,2.38,0,0,1,1.43.42,1.51,1.51,0,0,1,.65,1.29q0,2.3-3.36,4.27a11.13,11.13,0,0,1-5.51,1.75,5,5,0,0,1-2.7-.76,2.61,2.61,0,0,1-1.4-2.28q0-3.12,3.51-6.95a4.62,4.62,0,0,1-.88.08,5.41,5.41,0,0,1-3.2-1,3.33,3.33,0,0,1-1.61-2.82q0-3.39,3.86-5.42a13.84,13.84,0,0,1,6.9-1.61l0.55,0,0.16,0.19-0.12.16q-8.07,0-10.54,4.66a4.07,4.07,0,0,0-.46,1.92,3.07,3.07,0,0,0,1.54,2.64A5.33,5.33,0,0,0,1439,24.84Zm18.27-8q0-.84-1.59-0.84-3.17,0-7.21,3a61.42,61.42,0,0,0-6,5.44,25.87,25.87,0,0,0,6.69-1.66Q1457.32,19.49,1457.32,16.8Z" transform="translate(-1314.6 -13.93)"/>
      <path class="cls-1" d="M1456.86,32l0.14,0.18-0.08.15a4,4,0,0,1-2.23.53q-2.46,2.24-4.09,2.24a1.28,1.28,0,0,1-1.48-1.42q0-1.55,2.06-3a6.4,6.4,0,0,1,3.54-1.31,1.68,1.68,0,0,1,.9.24,0.89,0.89,0,0,1,.47.78,3.5,3.5,0,0,1-1,2,2.56,2.56,0,0,0,1-.2A3.84,3.84,0,0,1,1456.86,32Zm-6.42,2.71a5.87,5.87,0,0,0,3.19-1.51q2.06-1.58,2.06-2.74a0.66,0.66,0,0,0-.79-0.69q-1,0-3,1.75t-2,2.7A0.47,0.47,0,0,0,1450.43,34.71Z" transform="translate(-1314.6 -13.93)"/>
      <path class="cls-1" d="M1462.58,32.1l0.09,0.13q0,0.63-2.19,1.75a7.93,7.93,0,0,1-2.85,1.07,0.76,0.76,0,0,1-.85-0.88,2.6,2.6,0,0,1,.53-1.44l1-1.21a16.77,16.77,0,0,1-1.46.89l-0.15-.18,0.08-.15,1.93-1.24a9,9,0,0,0,1.73-1.47l2.7-3.24a52.09,52.09,0,0,1,4.45-4.68q2.67-2.37,4.1-2.37a0.87,0.87,0,0,1,.67.3,1,1,0,0,1,.28.7q0,1.4-2,3.08a32.49,32.49,0,0,1-4.1,2.73,33.9,33.9,0,0,0-3.24,2,27.72,27.72,0,0,0-2.75,2.93L1458,33.94a2.1,2.1,0,0,0-.3.49l0.23,0.15a5.11,5.11,0,0,0,2.75-1.16Q1462.54,32.1,1462.58,32.1Zm1-4.76q4.14-2.58,5-3.23,3.63-2.6,3.63-4a0.58,0.58,0,0,0-.67-0.65q-1.54,0-4.36,3.24Q1466.42,23.6,1463.6,27.34Z" transform="translate(-1314.6 -13.93)"/>
      <path class="cls-1" d="M1470.95,29.7q0,1.08-2,2.67a0.77,0.77,0,0,0,.39.11,2.39,2.39,0,0,0,.8-0.2,2.79,2.79,0,0,1,.75-0.21l0.12,0.2-0.07.13a3.44,3.44,0,0,1-1.4.43,1.75,1.75,0,0,1-.94-0.23,9.94,9.94,0,0,1-2.4,1.63,6.27,6.27,0,0,1-2.74.81,0.94,0.94,0,0,1-1.09-1,2.58,2.58,0,0,1,.76-1.54l1.23-1.31a12.65,12.65,0,0,1-1.89,1.2l-0.09-.15,0-.13a7.82,7.82,0,0,1,1.8-1.34,8.31,8.31,0,0,0,1.85-1.38l2.67-3.21a52.37,52.37,0,0,1,4.46-4.7q2.67-2.39,4.11-2.39a0.88,0.88,0,0,1,.66.3,1,1,0,0,1,.28.7q0,2.21-6.57,6.17a28.71,28.71,0,0,0-2.78,1.67,31.74,31.74,0,0,0-2.75,2.93l-2.59,3.09a0.67,0.67,0,0,0-.19.38q0,0.23.49,0.23a5.79,5.79,0,0,0,2.35-.82,11,11,0,0,0,2.15-1.4L1468.3,32a2.85,2.85,0,0,1,.8-1.67,2.18,2.18,0,0,1,1.5-1A0.31,0.31,0,0,1,1470.95,29.7Zm-1.7-2.36q4.13-2.58,5-3.23,3.63-2.6,3.63-4a0.58,0.58,0,0,0-.67-0.65q-1.54,0-4.36,3.24Q1472.07,23.6,1469.24,27.34Z" transform="translate(-1314.6 -13.93)"/>
      <path class="cls-1" d="M1480.29,29.38h1.53l-5.07,5.78a13.16,13.16,0,0,0,3.68-2.16,10.53,10.53,0,0,1,1.07-.88h0.15l0.09,0.13,0,0.13a7.5,7.5,0,0,1-2.64,2l-2.86,1.51a21.11,21.11,0,0,0-2.4,2.2,28,28,0,0,1-2.85,2.58,5.39,5.39,0,0,1-3.06,1.24,0.89,0.89,0,0,1-1-1q0-1.59,3-3.09,0.8-.41,4.44-1.77l2.46-2.88q-2.61,1.87-4,1.87a1,1,0,0,1-.76-0.35,1.15,1.15,0,0,1-.32-0.79,4.13,4.13,0,0,1,1.46-2.34,12.59,12.59,0,0,0,1.52-1.67l-0.19-.13a4,4,0,0,0-2,1.32,16,16,0,0,1-1.55,1.4l-0.17-.13q0-.5,1.67-1.72a5.27,5.27,0,0,1,2.19-1.22,0.78,0.78,0,0,1,.77,1,4.43,4.43,0,0,1-1.44,2.31,7,7,0,0,0-1.44,1.81q0,0.18.3,0.18Q1475,34.64,1480.29,29.38Zm-12.44,12.16a5,5,0,0,0,3.4-1.84l2.59-3.17q-3.09,1.19-3.94,1.62-2.68,1.38-2.69,2.77A0.56,0.56,0,0,0,1467.85,41.53Z" transform="translate(-1314.6 -13.93)"/>
    </g>
  </g>
</svg>
