<svg id="Layer_4" data-name="Layer 4" xmlns="http://www.w3.org/2000/svg" viewBox="0 0 226.55 217.87">
  <defs>
    <style>
      .cls-1 {
        fill: #2e6dfd;
      }

      .cls-2 {
        fill: #5095fb;
      }

      .cls-3 {
        fill: #fff;
      }

      .cls-13, .cls-4 {
        fill: #dbe6fc;
      }

      .cls-5 {
        fill: #53d4f0;
      }

      .cls-6 {
        fill: #534bb6;
      }

      .cls-7 {
        fill: #77f5ff;
      }

      .cls-8 {
        fill: #fd88c9;
      }

      .cls-9 {
        fill: #f0ca71;
      }

      .cls-10 {
        fill: #736ef4;
      }

      .cls-11 {
        fill: #524cb8;
      }

      .cls-12 {
        fill: #fcca71;
      }

      .cls-13 {
        font-size: 6.36px;
        font-family: AntipastoPro DemiBold;
        font-weight: 700;
      }

      .cls-14, .cls-16 {
        fill: none;
        stroke: #53d4f0;
        stroke-width: 2.12px;
      }

      .cls-14 {
        stroke-miterlimit: 10;
      }

      .cls-15 {
        fill: #a2dfff;
      }

      .cls-16 {
        stroke-linecap: round;
        stroke-linejoin: round;
      }

      .cls-17 {
        fill: #f8f8f8;
      }

      .cls-18 {
        fill: #11c4eb;
      }

      .cls-19 {
        opacity: 0.6;
      }
    </style>
  </defs>
  <title>logo</title>
  <g>
    <g>
      <g>
        <rect class="cls-1" x="101.6" y="97.45" width="23.45" height="31.03"/>
        <path class="cls-2" d="M1495.31,372.3h-63.72a1.81,1.81,0,0,1-1.81-1.81h0a1.7,1.7,0,0,1,1.7-1.7h63.93a1.7,1.7,0,0,1,1.7,1.7h0A1.81,1.81,0,0,1,1495.31,372.3Z" transform="translate(-1350.12 -243.77)"/>
        <rect class="cls-2" x="1388.59" y="263.49" width="149.71" height="93.23" rx="2.83" ry="2.83" transform="translate(1576.77 376.45) rotate(180)"/>
        <rect class="cls-3" x="44.21" y="25.47" width="138.23" height="77.98"/>
        <rect class="cls-4" x="51.91" y="79.52" width="36.13" height="14.42"/>
        <rect class="cls-4" x="95.24" y="79.52" width="36.13" height="14.42"/>
        <rect class="cls-4" x="138.56" y="79.52" width="36.13" height="14.42"/>
      </g>
      <g>
        <rect class="cls-4" x="51.91" y="31.89" width="30.91" height="2.91"/>
        <rect class="cls-4" x="104.84" y="33.02" width="8.19" height="1.88"/>
        <rect class="cls-4" x="123.34" y="33.02" width="11.89" height="1.88"/>
        <rect class="cls-4" x="143.77" y="33.02" width="11.89" height="1.88"/>
        <rect class="cls-4" x="164.2" y="33.02" width="11.89" height="1.88"/>
      </g>
      <rect class="cls-5" x="147.04" width="79.52" height="49.29" rx="2.09" ry="2.09"/>
      <rect class="cls-6" x="162.77" y="19.8" width="48.06" height="48.76" rx="2.09" ry="2.09"/>
      <path class="cls-7" d="M1424.11,243.77h-67.7a6.29,6.29,0,0,0,0,12.58h62.18l3.84,4.84v-4.84h1.68A6.29,6.29,0,1,0,1424.11,243.77Z" transform="translate(-1350.12 -243.77)"/>
      <g>
        <g>
          <rect class="cls-8" x="169.1" y="25.48" width="4.01" height="1.2"/>
          <rect class="cls-3" x="175.24" y="25.48" width="16.13" height="1.2"/>
          <rect class="cls-3" x="175.24" y="27.58" width="2.64" height="1.2"/>
          <rect class="cls-8" x="189.52" y="29.69" width="14.98" height="1.2"/>
          <rect class="cls-3" x="178.5" y="27.58" width="8.33" height="1.2"/>
          <rect class="cls-3" x="175.24" y="33.89" width="2.64" height="1.2"/>
          <rect class="cls-9" x="178.5" y="33.89" width="2.99" height="1.2"/>
          <rect class="cls-8" x="175.24" y="29.69" width="13.66" height="1.2"/>
          <rect class="cls-3" x="175.24" y="31.79" width="29.25" height="1.2"/>
        </g>
        <g>
          <rect class="cls-8" x="169.1" y="39.37" width="4.01" height="1.2"/>
          <rect class="cls-3" x="175.24" y="39.37" width="16.13" height="1.2"/>
          <rect class="cls-3" x="175.24" y="41.48" width="2.64" height="1.2"/>
          <rect class="cls-8" x="189.52" y="43.58" width="14.98" height="1.2"/>
          <rect class="cls-3" x="178.5" y="41.48" width="8.33" height="1.2"/>
          <rect class="cls-3" x="175.24" y="47.79" width="2.64" height="1.2"/>
          <rect class="cls-9" x="178.5" y="47.79" width="2.99" height="1.2"/>
          <rect class="cls-8" x="175.24" y="43.58" width="13.66" height="1.2"/>
          <rect class="cls-3" x="175.24" y="45.68" width="29.25" height="1.2"/>
        </g>
        <g>
          <rect class="cls-8" x="169.1" y="53.27" width="4.01" height="1.2"/>
          <rect class="cls-3" x="175.24" y="53.27" width="16.13" height="1.2"/>
          <rect class="cls-3" x="175.24" y="55.37" width="2.64" height="1.2"/>
          <rect class="cls-8" x="189.52" y="57.47" width="14.98" height="1.2"/>
          <rect class="cls-3" x="178.5" y="55.37" width="8.33" height="1.2"/>
          <rect class="cls-3" x="175.24" y="61.68" width="2.64" height="1.2"/>
          <rect class="cls-9" x="178.5" y="61.68" width="2.99" height="1.2"/>
          <rect class="cls-8" x="175.24" y="57.47" width="13.66" height="1.2"/>
          <rect class="cls-3" x="175.24" y="59.58" width="29.25" height="1.2"/>
        </g>
      </g>
      <g>
        <rect class="cls-10" x="0.09" y="41.69" width="49.18" height="49.18" rx="2.09" ry="2.09"/>
        <g>
          <g>
            <path class="cls-11" d="M1374.83,330.52a20.38,20.38,0,1,1,20.38-20.38A20.4,20.4,0,0,1,1374.83,330.52Zm0-38.33a18,18,0,1,0,18,18A18,18,0,0,0,1374.83,292.18Z" transform="translate(-1350.12 -243.77)"/>
            <path class="cls-11" d="M1374.83,326.27A16.14,16.14,0,1,1,1391,310.14,16.15,16.15,0,0,1,1374.83,326.27Zm0-29.85a13.71,13.71,0,1,0,13.71,13.71A13.73,13.73,0,0,0,1374.83,296.42Z" transform="translate(-1350.12 -243.77)"/>
            <path class="cls-5" d="M1374.83,326.27a1.21,1.21,0,1,1,0-2.42,13.71,13.71,0,1,0,0-27.42,1.21,1.21,0,1,1,0-2.42A16.14,16.14,0,1,1,1374.83,326.27Z" transform="translate(-1350.12 -243.77)"/>
            <path class="cls-11" d="M1374.83,322a11.89,11.89,0,1,1,11.89-11.89A11.91,11.91,0,0,1,1374.83,322Zm0-21.36a9.47,9.47,0,1,0,9.47,9.47A9.48,9.48,0,0,0,1374.83,300.67Z" transform="translate(-1350.12 -243.77)"/>
            <path class="cls-11" d="M1374.83,317.79a7.65,7.65,0,1,1,7.65-7.65A7.66,7.66,0,0,1,1374.83,317.79Zm0-12.88a5.23,5.23,0,0,0-5.23,5.23A5.23,5.23,0,1,0,1374.83,304.91Z" transform="translate(-1350.12 -243.77)"/>
            <path class="cls-8" d="M1374.83,317.79a7.66,7.66,0,0,1-7.65-7.65,1.21,1.21,0,1,1,2.42,0,5.23,5.23,0,1,0,5.23-5.23,1.21,1.21,0,1,1,0-2.42A7.65,7.65,0,1,1,1374.83,317.79Z" transform="translate(-1350.12 -243.77)"/>
          </g>
          <path class="cls-3" d="M1394,311.53a1.4,1.4,0,0,1-1.4-1.4,17.79,17.79,0,0,0-17.77-17.77,1.4,1.4,0,1,1,0-2.79,20.59,20.59,0,0,1,20.56,20.56A1.4,1.4,0,0,1,1394,311.53Z" transform="translate(-1350.12 -243.77)"/>
          <path class="cls-12" d="M1374.83,322.21a12.09,12.09,0,0,1-9-4.05,1.4,1.4,0,0,1,2.08-1.86,9.28,9.28,0,1,0,6.94-15.45,1.4,1.4,0,1,1,0-2.79A12.08,12.08,0,1,1,1374.83,322.21Z" transform="translate(-1350.12 -243.77)"/>
        </g>
        <polyline class="cls-10" points="48.23 49.87 52.61 46.4 48.23 46.4"/>
      </g>
      <text class="cls-13" transform="translate(51.91 56.83)">W<tspan x="5.17" y="0">eb </tspan><tspan x="13.32" y="0">D</tspan><tspan x="17.58" y="0">esi</tspan><tspan x="24.77" y="0">g</tspan><tspan x="28.28" y="0">n</tspan></text>
      <g>
        <rect class="cls-4" x="51.91" y="61" width="8.12" height="1.59"/>
        <g>
          <rect class="cls-4" x="51.91" y="64.25" width="47.48" height="1.87"/>
          <rect class="cls-4" x="51.91" y="67.47" width="47.48" height="1.87"/>
          <rect class="cls-4" x="51.91" y="70.69" width="25.42" height="1.87"/>
        </g>
      </g>
      <g>
        <rect class="cls-3" x="194.65" y="71.63" width="31.91" height="31.91" rx="1.59" ry="1.59"/>
        <g>
          <g>
            <rect class="cls-8" x="201.57" y="90.64" width="2.77" height="5.19"/>
            <rect class="cls-9" x="205.51" y="83.96" width="2.77" height="11.87"/>
            <rect class="cls-10" x="209.44" y="88.04" width="2.77" height="7.79"/>
            <rect class="cls-2" x="213.37" y="80.25" width="2.77" height="15.58"/>
            <rect class="cls-5" x="217.3" y="78.02" width="2.77" height="17.81"/>
          </g>
          <rect class="cls-4" x="201.57" y="97.51" width="2.77" height="0.59"/>
          <rect class="cls-4" x="205.51" y="97.51" width="2.77" height="0.59"/>
          <rect class="cls-4" x="209.44" y="97.51" width="2.77" height="0.59"/>
          <rect class="cls-4" x="213.37" y="97.51" width="2.77" height="0.59"/>
          <rect class="cls-4" x="217.3" y="97.51" width="2.77" height="0.59"/>
        </g>
      </g>
      <circle class="cls-14" cx="22.25" cy="27.69" r="2.45"/>
      <circle class="cls-14" cx="198.07" cy="116.73" r="2.45"/>
      <circle class="cls-4" cx="30.1" cy="32.96" r="2.07"/>
      <g>
        <g>
          <rect class="cls-5" x="17.91" y="95.83" width="44.45" height="29.93" rx="1.59" ry="1.59"/>
          <rect class="cls-6" x="1377.56" y="334.61" width="25.4" height="39.91" transform="translate(394.71 -1279.46) rotate(90)"/>
          <circle class="cls-9" cx="42.81" cy="107.39" r="3.33"/>
        </g>
        <polygon class="cls-15" points="60.09 119.87 50.05 109.82 43.02 116.84 28.65 102.47 20.18 110.94 20.18 123.5 60.09 123.5 60.09 119.87"/>
      </g>
      <g>
        <line class="cls-16" x1="129.28" y1="9.73" x2="129.28" y2="13.93"/>
        <line class="cls-16" x1="131.38" y1="11.83" x2="127.18" y2="11.83"/>
      </g>
      <g>
        <line class="cls-16" x1="218.69" y1="57.48" x2="218.69" y2="61.68"/>
        <line class="cls-16" x1="220.79" y1="59.58" x2="216.59" y2="59.58"/>
      </g>
      <g>
        <line class="cls-16" x1="69.98" y1="116.71" x2="69.98" y2="120.91"/>
        <line class="cls-16" x1="72.08" y1="118.81" x2="67.88" y2="118.81"/>
      </g>
      <circle class="cls-3" cx="78.5" cy="116.27" r="1.16"/>
      <circle class="cls-3" cx="83.52" cy="118.12" r="0.69"/>
      <circle class="cls-4" cx="8.87" cy="101.62" r="1.85"/>
      <circle class="cls-3" cx="190.32" cy="119.83" r="2.14"/>
      <g>
        <circle class="cls-3" cx="122.02" cy="6.7" r="1.45"/>
        <circle class="cls-3" cx="135.75" cy="14.44" r="1.24"/>
        <circle class="cls-3" cx="137.87" cy="10.61" r="0.88"/>
      </g>
      <g>
        <path class="cls-8" d="M1454.75,256h8.62a0.68,0.68,0,0,1,.68.68v7.61a0.68,0.68,0,0,1-.68.68h-2.57l-1.74,1.74-1.74-1.74h-2.57a0.68,0.68,0,0,1-.68-0.68v-7.61A0.68,0.68,0,0,1,1454.75,256Z" transform="translate(-1350.12 -243.77)"/>
        <path class="cls-17" d="M1461,259.48a1.11,1.11,0,0,0-1.56,0l-0.37.37-0.37-.37a1.11,1.11,0,0,0-1.56,1.56l1.93,1.93L1461,261A1.11,1.11,0,0,0,1461,259.48Z" transform="translate(-1350.12 -243.77)"/>
      </g>
      <g>
        <circle class="cls-5" cx="171.85" cy="116.27" r="7.16"/>
        <path class="cls-3" d="M1522,355.33a4.7,4.7,0,0,0-3.94,7.28,0.51,0.51,0,0,1,.05.45l-0.48,1.34,1.34-.48a0.51,0.51,0,0,1,.45.05A4.7,4.7,0,1,0,1522,355.33Zm0.34,5.81-0.8-.8-1.71.8,1.78-2.2,0.92,1.1,1.65-1.1Z" transform="translate(-1350.12 -243.77)"/>
      </g>
      <path class="cls-18" d="M1507.52,249l-3.8,3.94a0.35,0.35,0,0,0-.1.24v3.48a0.35,0.35,0,0,0,.35.35h2.57a0.35,0.35,0,0,0,.35-0.35v-1.7a0.88,0.88,0,0,1,.88-0.88h0a0.88,0.88,0,0,1,.88.88v1.7a0.35,0.35,0,0,0,.35.35h2.57a0.35,0.35,0,0,0,.35-0.35v-3.48a0.35,0.35,0,0,0-.1-0.24L1508,249A0.35,0.35,0,0,0,1507.52,249Z" transform="translate(-1350.12 -243.77)"/>
      <g>
        <rect class="cls-12" x="0.09" y="98.85" width="14.78" height="14.78" rx="2.02" ry="2.02"/>
        <path class="cls-3" d="M1362.44,353.79l-2-2a4.22,4.22,0,1,0-1,1l2,2Zm-5.45-1.67a2.74,2.74,0,1,1,2.74-2.74A2.74,2.74,0,0,1,1357,352.12Z" transform="translate(-1350.12 -243.77)"/>
      </g>
    </g>
    <g class="cls-19">
      <g>
        <path class="cls-3" d="M1375.9,388.11h17.21V393h-10.22v3.93h8.73v4.55h-8.73v9.2h-7V388.11Z" transform="translate(-1350.12 -243.77)"/>
        <path class="cls-3" d="M1393.8,410.64V388.11h11.6a16.86,16.86,0,0,1,4.93.55,5.25,5.25,0,0,1,2.75,2.05,6.36,6.36,0,0,1-2,9.09,8.42,8.42,0,0,1-2.44.89,6.94,6.94,0,0,1,1.81.83,7.05,7.05,0,0,1,1.11,1.18,8.87,8.87,0,0,1,1,1.4l3.37,6.53h-7.86l-3.72-6.88a5.24,5.24,0,0,0-1.26-1.74,2.92,2.92,0,0,0-1.71-.52h-0.62v9.14h-7Zm7-13.4h2.93a10.47,10.47,0,0,0,1.84-.31,1.84,1.84,0,0,0,1.13-.71,2.28,2.28,0,0,0-.25-3,4.18,4.18,0,0,0-2.6-.58h-3.06v4.58Z" transform="translate(-1350.12 -243.77)"/>
        <path class="cls-3" d="M1413.62,399.39q0-5.52,3.07-8.59t8.56-3.07q5.62,0,8.67,3t3,8.46a13.87,13.87,0,0,1-1.33,6.48,9.48,9.48,0,0,1-3.84,3.93,12.68,12.68,0,0,1-6.26,1.41,14.41,14.41,0,0,1-6.31-1.21,9.5,9.5,0,0,1-4-3.84A12.76,12.76,0,0,1,1413.62,399.39Zm7,0q0,3.41,1.27,4.9a4.8,4.8,0,0,0,6.92,0q1.23-1.46,1.23-5.24a7,7,0,0,0-1.28-4.65,4.38,4.38,0,0,0-3.48-1.47,4.23,4.23,0,0,0-3.38,1.49Q1420.58,396,1420.58,399.42Z" transform="translate(-1350.12 -243.77)"/>
        <path class="cls-3" d="M1437.61,388.11h6.5l8.48,12.46V388.11h6.56v22.52h-6.56l-8.43-12.37v12.37h-6.55V388.11Z" transform="translate(-1350.12 -243.77)"/>
        <path class="cls-3" d="M1459,388.11h21.16v5.56h-7.1v17h-7v-17H1459v-5.56Z" transform="translate(-1350.12 -243.77)"/>
        <path class="cls-3" d="M1485.38,388.11H1504v4.81h-11.68v3.58h10.83v4.59h-10.83v4.44h12v5.1h-19V388.11Z" transform="translate(-1350.12 -243.77)"/>
        <path class="cls-3" d="M1505,388.11h6.5l8.48,12.46V388.11h6.56v22.52H1520l-8.43-12.37v12.37H1505V388.11Z" transform="translate(-1350.12 -243.77)"/>
        <path class="cls-3" d="M1528.13,388.11h10.34a12.39,12.39,0,0,1,4.94.83,8,8,0,0,1,3.11,2.38,9.87,9.87,0,0,1,1.78,3.61,16.78,16.78,0,0,1,.55,4.36,15.15,15.15,0,0,1-.82,5.6,9.27,9.27,0,0,1-2.28,3.33,7.45,7.45,0,0,1-3.13,1.79,16.13,16.13,0,0,1-4.15.61h-10.34V388.11Zm7,5.1v12.31h1.71a7.17,7.17,0,0,0,3.1-.48,3.28,3.28,0,0,0,1.44-1.69,10.6,10.6,0,0,0,.52-3.91q0-3.58-1.17-4.9a4.94,4.94,0,0,0-3.87-1.32h-1.74Z" transform="translate(-1350.12 -243.77)"/>
      </g>
      <g>
        <path class="cls-3" d="M1351.53,411.1h12.61a15.11,15.11,0,0,1,6,1A9.79,9.79,0,0,1,1374,415a12,12,0,0,1,2.17,4.4,20.45,20.45,0,0,1,.67,5.32,18.48,18.48,0,0,1-1,6.83,11.31,11.31,0,0,1-2.78,4.07,9.07,9.07,0,0,1-3.82,2.18,19.68,19.68,0,0,1-5.06.75h-12.61V411.1Zm8.49,6.22v15h2.08a8.74,8.74,0,0,0,3.78-.59,4,4,0,0,0,1.76-2.06,13,13,0,0,0,.64-4.77q0-4.37-1.42-6t-4.72-1.61H1360Z" transform="translate(-1350.12 -243.77)"/>
        <path class="cls-3" d="M1377.41,411.1h22.75V417h-14.24v4.37h13.21v5.6h-13.21v5.41h14.65v6.22h-23.16V411.1Z" transform="translate(-1350.12 -243.77)"/>
        <path class="cls-3" d="M1398.6,411.1h8.87l6.18,19.77,6.1-19.77h8.61l-10.2,27.47H1409Z" transform="translate(-1350.12 -243.77)"/>
        <path class="cls-3" d="M1427.29,411.1H1450V417h-14.24v4.37H1449v5.6h-13.21v5.41h14.65v6.22h-23.16V411.1Z" transform="translate(-1350.12 -243.77)"/>
        <path class="cls-3" d="M1451.18,411.1h8.49v20.7h13.25v6.76h-21.73V411.1Z" transform="translate(-1350.12 -243.77)"/>
        <path class="cls-3" d="M1471.21,424.85q0-6.73,3.75-10.47t10.44-3.75q6.86,0,10.57,3.68t3.71,10.31a16.91,16.91,0,0,1-1.62,7.9,11.56,11.56,0,0,1-4.68,4.8,15.46,15.46,0,0,1-7.63,1.71,17.57,17.57,0,0,1-7.69-1.48,11.58,11.58,0,0,1-4.94-4.68A15.55,15.55,0,0,1,1471.21,424.85Zm8.49,0q0,4.16,1.55,6a5.85,5.85,0,0,0,8.44,0q1.5-1.78,1.5-6.39,0-3.88-1.56-5.67a5.35,5.35,0,0,0-4.24-1.79,5.16,5.16,0,0,0-4.12,1.82Q1479.69,420.69,1479.69,424.89Z" transform="translate(-1350.12 -243.77)"/>
        <path class="cls-3" d="M1500.36,411.1h14.11q4.61,0,6.9,2.19a8.22,8.22,0,0,1,2.29,6.24,8.47,8.47,0,0,1-2.5,6.5q-2.5,2.34-7.63,2.34h-4.65v10.19h-8.53V411.1Zm8.53,11.71H1511a5.35,5.35,0,0,0,3.45-.85,2.75,2.75,0,0,0,1-2.18,3.05,3.05,0,0,0-.86-2.19,4.47,4.47,0,0,0-3.24-.9h-2.42v6.13Z" transform="translate(-1350.12 -243.77)"/>
        <path class="cls-3" d="M1524.25,411.1H1547V417h-14.24v4.37H1546v5.6h-13.21v5.41h14.65v6.22h-23.16V411.1Z" transform="translate(-1350.12 -243.77)"/>
        <path class="cls-3" d="M1548.25,438.57V411.1h14.15a20.55,20.55,0,0,1,6,.67,6.41,6.41,0,0,1,3.35,2.5,7.76,7.76,0,0,1-2.38,11.08,10.25,10.25,0,0,1-3,1.09,5.75,5.75,0,0,1,3.57,2.46,10.85,10.85,0,0,1,1.19,1.71l4.11,8h-9.59l-4.54-8.39a6.39,6.39,0,0,0-1.54-2.12,3.56,3.56,0,0,0-2.08-.64h-0.75v11.15h-8.52Zm8.52-16.34h3.58a12.76,12.76,0,0,0,2.25-.37A2.24,2.24,0,0,0,1564,421a2.78,2.78,0,0,0-.31-3.63,5.1,5.1,0,0,0-3.17-.71h-3.73v5.58Z" transform="translate(-1350.12 -243.77)"/>
      </g>
    </g>
    <g>
      <path class="cls-3" d="M1371.94,454a7.45,7.45,0,0,0,.89-1.89,2.87,2.87,0,0,0-.17-2,5.43,5.43,0,0,0-.46-0.79q-0.26-.37-0.55-0.72l-1.65,2.25a12.55,12.55,0,0,1-1.5,1.7,7.84,7.84,0,0,1-1.84,1.32,5.69,5.69,0,0,1-2.1.6,4.4,4.4,0,0,1-2.3-.47,3,3,0,0,1-1-.74,4.5,4.5,0,0,1-.68-1,5.18,5.18,0,0,1-.39-1.22,6.52,6.52,0,0,1-.12-1.23,5.4,5.4,0,0,1,.57-2.43,5.65,5.65,0,0,1,1.56-1.94,7.22,7.22,0,0,1,2.15-1.26,24.17,24.17,0,0,1,2.42-.76A7,7,0,0,1,1366,441a4.77,4.77,0,0,1,.21-2.41,4.46,4.46,0,0,1,1.35-1.94,5,5,0,0,1,2.11-1,5.33,5.33,0,0,1,1.05-.15,5,5,0,0,1,1.1.07,4.71,4.71,0,0,1,1.05.32,3.18,3.18,0,0,1,.9.59,2.54,2.54,0,0,1,.67,1,3.19,3.19,0,0,1,.18,1.14,3.41,3.41,0,0,1-.24,1.16,3.91,3.91,0,0,1-.59,1.05,6.11,6.11,0,0,1-1.18,1.16,15.39,15.39,0,0,1-1.38.91l1.48,1.16,0.83-1.36c0.27-.45.56-0.88,0.88-1.31a10.64,10.64,0,0,1,.76-1,8.94,8.94,0,0,1,.91-0.93,6.65,6.65,0,0,1,1-.75,4.39,4.39,0,0,1,1.2-.47,2.42,2.42,0,0,1,.59-0.09,3.11,3.11,0,0,1,.72.06,2.53,2.53,0,0,1,.73.27,2.25,2.25,0,0,1,.66.57,3.41,3.41,0,0,0-1.26.56,12.27,12.27,0,0,0-1.38,1.07q-0.69.62-1.35,1.28t-1.12,1.19q-0.94,1.06-1.8,2.17a8.08,8.08,0,0,1,1.2,1.51,4.45,4.45,0,0,1,.6,1.8,3.77,3.77,0,0,1-.27,1.81,7.11,7.11,0,0,1-1,1.74,6,6,0,0,1-1.33,1.3A2.25,2.25,0,0,1,1371.94,454Zm-3.85-4a10.82,10.82,0,0,0,1.16-1.2q0.59-.7,1.16-1.44l-0.89-.79q-0.52-.47-1-1a9.87,9.87,0,0,1-1-1.15,10.71,10.71,0,0,0-1.84,1,6.35,6.35,0,0,0-1.14,1,3.46,3.46,0,0,0-.63,1,5.57,5.57,0,0,0-.3,1,2.85,2.85,0,0,0,.1,1.48,2.06,2.06,0,0,0,.84,1.12,2,2,0,0,0,1.5.22A4.38,4.38,0,0,0,1368.09,450Zm1.46-12.42a2.35,2.35,0,0,0-.8,2.09,4.2,4.2,0,0,0,1.54,2.51l0.2-.12a7.51,7.51,0,0,0,.83-0.6,5.63,5.63,0,0,0,.79-0.8,3.89,3.89,0,0,0,.57-1,2.44,2.44,0,0,0,.18-1,1.33,1.33,0,0,0-.41-0.94,2.1,2.1,0,0,0-.9-0.52,2.35,2.35,0,0,0-1.08,0A1.78,1.78,0,0,0,1369.55,437.58Z" transform="translate(-1350.12 -243.77)"/>
      <path class="cls-3" d="M1404.57,437.87a2.22,2.22,0,0,1,.47,1.32,3.12,3.12,0,0,1-.3,1.32,4.87,4.87,0,0,1-.79,1.2,6.16,6.16,0,0,1-1,.93,10.11,10.11,0,0,1-2.26,1.21,10.28,10.28,0,0,1-2.48.62,7.36,7.36,0,0,1-2-.06,6.16,6.16,0,0,1-1.83-.6l-0.24.35-0.24.37c-0.16.28-.35,0.62-0.57,1a13.4,13.4,0,0,0-.58,1.25,7.56,7.56,0,0,0-.4,1.3,2.55,2.55,0,0,0,0,1.2,1.34,1.34,0,0,0,.75.91,1.88,1.88,0,0,0,1.2.15,2.54,2.54,0,0,0,1.21-.59,5.25,5.25,0,0,0,.91-1,8.37,8.37,0,0,1,1-1.53,5.29,5.29,0,0,1,1.38-1.23,2.87,2.87,0,0,1,.58-0.28,3.29,3.29,0,0,1,.79-0.18,3.36,3.36,0,0,1,.86,0,1.93,1.93,0,0,1,.8.31,9.91,9.91,0,0,0-1.33,2q-0.57,1.12-1.16,2.23-0.87,1.51-1.7,3a26,26,0,0,1-1.88,2.88q-0.44.59-1,1.19a9,9,0,0,1-1.11,1.07,7.78,7.78,0,0,1-1.27.84,4.23,4.23,0,0,1-1.44.46,5.42,5.42,0,0,1-1.37,0,5.64,5.64,0,0,1-1.34-.31,4.61,4.61,0,0,1-1.19-.64,4.25,4.25,0,0,1-.94-1,3.65,3.65,0,0,1-.59-1.41,4.36,4.36,0,0,1,.48-3,3.57,3.57,0,0,1,1-1.15,3.38,3.38,0,0,1,1.3-.58,2.31,2.31,0,0,1,1.39.11,0.42,0.42,0,0,1,.25.18,0.18,0.18,0,0,1-.05.17,0.88,0.88,0,0,1-.21.17,1.41,1.41,0,0,0-.24.19,4.06,4.06,0,0,0-1,1.54,4.94,4.94,0,0,0-.3,1.73,3.68,3.68,0,0,0,.33,1.53,1.68,1.68,0,0,0,.89.9,2,2,0,0,0,1.32.12,3.24,3.24,0,0,0,1.16-.59,4.88,4.88,0,0,0,1-1,9,9,0,0,0,.69-1.14,19.76,19.76,0,0,0,.86-2q0.37-1,.79-2l-0.57.39a3.11,3.11,0,0,1-.62.32,3.32,3.32,0,0,1-1.43.31,3.52,3.52,0,0,1-1.34-.28,3.32,3.32,0,0,1-1.12-.8,4.15,4.15,0,0,1-.79-1.25,5.06,5.06,0,0,1-.37-2.23,7,7,0,0,1,.52-2.2,10.11,10.11,0,0,1,1.16-2.06,16.61,16.61,0,0,1,1.53-1.83,4.5,4.5,0,0,1-.58-1.86,3.46,3.46,0,0,1,.41-1.94c0.07-.11.15-0.25,0.26-0.41a3.78,3.78,0,0,1,.36-0.44,2.22,2.22,0,0,1,.41-0.35,0.79,0.79,0,0,1,.43-0.14c0.12,0.53.24,1.06,0.37,1.59a4.91,4.91,0,0,0,.64,1.49,18.51,18.51,0,0,1,2.22-1.42,12.21,12.21,0,0,1,2.45-1c0.41-.11.86-0.23,1.36-0.33a6.43,6.43,0,0,1,1.48-.15,4.33,4.33,0,0,1,1.39.25A2.3,2.3,0,0,1,1404.57,437.87Zm-4.67,3.53q0.45-.07,1-0.23a5.62,5.62,0,0,0,1.14-.45,3.69,3.69,0,0,0,1-.7,1.75,1.75,0,0,0,.48-1,1,1,0,0,0-.26-0.85,1.49,1.49,0,0,0-.78-0.32,3,3,0,0,0-1,0,5.46,5.46,0,0,0-.9.26,6.34,6.34,0,0,0-1.33.69q-0.62.42-1.19,0.89t-0.83.73q-0.41.38-.78,0.78a5.23,5.23,0,0,0,1.73.31A10.59,10.59,0,0,0,1399.9,441.41Z" transform="translate(-1350.12 -243.77)"/>
      <path class="cls-3" d="M1399.55,451.56a27,27,0,0,0,2.72-3.72,24.61,24.61,0,0,0,2-4.26,2,2,0,0,1-.25-1.14,2.42,2.42,0,0,1,.28-1,1.36,1.36,0,0,1,.6-0.59,0.72,0.72,0,0,1,.74.07,0.73,0.73,0,0,1,.35.78,4.51,4.51,0,0,1-.27,1,0.81,0.81,0,0,0,.41.1h0.41a5.22,5.22,0,0,0,1.19-.22,2.44,2.44,0,0,1,.64-0.68,0.6,0.6,0,0,1,.72.16,2.71,2.71,0,0,1,1.12,1.44,1.39,1.39,0,0,1-.43,1.27q-0.94,1.21-1.83,2.59a13.83,13.83,0,0,0-1.33,2.57,3.37,3.37,0,0,0-.27,1.4,0.78,0.78,0,0,0,.37.69,1.06,1.06,0,0,0,.85,0,3.92,3.92,0,0,0,1.17-.77,12.15,12.15,0,0,0,1.51-1.68,15.24,15.24,0,0,0,1.38-2.17,0.48,0.48,0,0,1,.55,0,0.58,0.58,0,0,1,.24.43q-0.67,1.26-1.37,2.32a13.1,13.1,0,0,1-1.67,2,5.74,5.74,0,0,1-1.6,1.17,4.35,4.35,0,0,1-1.56.43,2.57,2.57,0,0,1-1.33-.25,2.24,2.24,0,0,1-.94-0.88,2.91,2.91,0,0,1-.37-1.43,5.07,5.07,0,0,1,.39-1.94,17.7,17.7,0,0,1,1.24-2.59,19,19,0,0,1,1.43-2.17,1,1,0,0,1-.27,0,4.31,4.31,0,0,1-.57-0.11,4.48,4.48,0,0,1-.69-0.23c-0.18.48-.41,1-0.69,1.69s-0.61,1.32-1,2-0.63,1.14-1,1.63a7.56,7.56,0,0,1-1,1.23,3.76,3.76,0,0,1-1,.74A1.54,1.54,0,0,1,1399.55,451.56Z" transform="translate(-1350.12 -243.77)"/>
      <path class="cls-3" d="M1423.88,442.84q-0.27.37-.65,1c-0.26.39-.52,0.82-0.8,1.28s-0.55.94-.83,1.43-0.51,1-.73,1.41q-0.67,1.38-1,2.32a1.65,1.65,0,0,0-.2,1.21,0.25,0.25,0,0,0,.26.11,1.66,1.66,0,0,0,.41-0.09,2,2,0,0,0,.41-0.18l0.26-.16a4.82,4.82,0,0,0,1-.8q0.42-.46.79-1t0.67-1q0.32-.52.59-1a0.86,0.86,0,0,1,.51,0,0.49,0.49,0,0,1,.29.39L1424.1,449a10.54,10.54,0,0,1-.74,1.21q-0.39.59-.83,1.14a12.55,12.55,0,0,1-.93,1,6.22,6.22,0,0,1-1,.83,2.1,2.1,0,0,1-1.25.33,2,2,0,0,1-1.23-.39,2.24,2.24,0,0,1-.79-1,2.6,2.6,0,0,1-.17-0.67,8.91,8.91,0,0,1-.84,1,4.33,4.33,0,0,1-1,.79,2.81,2.81,0,0,1-1.65.37,2.48,2.48,0,0,1-1.51-.67,2.87,2.87,0,0,1-.84-1.35,5.73,5.73,0,0,1-.22-1.57,7.16,7.16,0,0,1,.32-2,10.07,10.07,0,0,1,.78-1.85,10.74,10.74,0,0,1,1.11-1.67,12.21,12.21,0,0,1,1.34-1.42,5.79,5.79,0,0,1,1.57-1,3.85,3.85,0,0,1,1.81-.35,2.9,2.9,0,0,1,2.62,1.9,4.19,4.19,0,0,1,.68-0.63,3,3,0,0,1,.8-0.43,2.28,2.28,0,0,1,1-.15A1.27,1.27,0,0,1,1423.88,442.84Zm-7.8,6.77a8.63,8.63,0,0,0,2-2,6.63,6.63,0,0,0,1.16-2.62,2,2,0,0,0,0-1,0.85,0.85,0,0,0-.77-0.6,1.28,1.28,0,0,0-.91.2,5.62,5.62,0,0,0-.77.59,8.56,8.56,0,0,0-1.72,2.37,13.33,13.33,0,0,0-1,2.77,2.12,2.12,0,0,0,.13,1.89,1,1,0,0,0,1.25,0,5.14,5.14,0,0,0,1-.67q0.46-.39.88-0.81a4,4,0,0,1-.7.09A0.56,0.56,0,0,1,1416.07,449.6Z" transform="translate(-1350.12 -243.77)"/>
      <path class="cls-3" d="M1434.52,447.38a0.82,0.82,0,0,1,.54-0.05,0.49,0.49,0,0,1,.25.45,17.46,17.46,0,0,1-1.62,2.62,11,11,0,0,1-1.88,2,7.06,7.06,0,0,1-2.1,1.18,5.85,5.85,0,0,1-2.31.31,3.71,3.71,0,0,1-1.93-.64,2.7,2.7,0,0,1-1.09-1.58l-0.82,1.6-1.36,2.64-0.29.6-0.46,1q-0.25.57-.46,1.15a4.71,4.71,0,0,0-.26,1,4.34,4.34,0,0,1-.72-0.37,3.41,3.41,0,0,1-.62-0.51,2.29,2.29,0,0,1-.42-0.59,1.06,1.06,0,0,1-.1-0.63,5.08,5.08,0,0,1,.43-1.27l0.58-1.2q0.74-1.56,1.57-3.06t1.62-3q0.94-1.75,1.81-3.52t1.64-3.62a0.67,0.67,0,0,1,.41-0.1,1.82,1.82,0,0,1,.72.1,1.09,1.09,0,0,1,.57.45,1.13,1.13,0,0,1,0,1l-0.45,1.11a9.08,9.08,0,0,1,1.05-1,6.36,6.36,0,0,1,1.22-.77,2.68,2.68,0,0,1,1.16-.21,1.7,1.7,0,0,1,1.09.36,1.64,1.64,0,0,1,.59.88,4.85,4.85,0,0,1,.17,1.1,5.51,5.51,0,0,1-.4,2.37,24.21,24.21,0,0,1-1,2.32,16.19,16.19,0,0,1-.8,1.42,9.2,9.2,0,0,1-1,1.3,4,4,0,0,0,1.42-.65,7.86,7.86,0,0,0,1.27-1.14,11.08,11.08,0,0,0,1.09-1.42Q1434.1,448.15,1434.52,447.38Zm-9.41,2.81a3.19,3.19,0,0,0,.25.84,1.23,1.23,0,0,0,.44.54,0.78,0.78,0,0,0,.64.07,1.82,1.82,0,0,0,.81-0.59,10.3,10.3,0,0,0,1.77-2.52,15.28,15.28,0,0,0,1.1-2.89,4.59,4.59,0,0,0,.11-0.46,3.22,3.22,0,0,0,.06-0.62,1.49,1.49,0,0,0-.09-0.53,0.29,0.29,0,0,0-.33-0.2,1.6,1.6,0,0,0-.63.21,5.21,5.21,0,0,0-.67.44,5.91,5.91,0,0,0-.63.57l-0.52.56-0.17.18-0.15.18-1,2.07Z" transform="translate(-1350.12 -243.77)"/>
      <path class="cls-3" d="M1446.8,447.38q0.77-.32.79,0.39a20.23,20.23,0,0,1-2,3.16,12.63,12.63,0,0,1-2.41,2.42,1.86,1.86,0,0,1-.58.33,3.77,3.77,0,0,1-.75.2,4.09,4.09,0,0,1-.78,0,1.92,1.92,0,0,1-.68-0.14,2.05,2.05,0,0,1-1-.72A2.49,2.49,0,0,1,1439,452a3.78,3.78,0,0,1,0-1.19,5.56,5.56,0,0,1,.28-1.15,14.85,14.85,0,0,1,1.26-2.69q0.77-1.28,1.56-2.54a2.35,2.35,0,0,0-.36.27l-0.33.3c-0.26.23-.7,0.64-1.31,1.22s-1.3,1.29-2.08,2.12-1.58,1.75-2.42,2.74a35.12,35.12,0,0,0-2.32,3.07,1,1,0,0,1-.49-0.12,1.43,1.43,0,0,1-.38-0.31,1.86,1.86,0,0,1-.26-0.38,1.44,1.44,0,0,1-.12-0.32,1.85,1.85,0,0,1,.14-0.93q0.21-.63.54-1.37t0.73-1.49l0.67-1.27q0.79-1.48,1.6-2.9t1.61-2.85l0.55-1,0.89-1.51q0.48-.8.94-1.52a10.23,10.23,0,0,1,.73-1,2.64,2.64,0,0,1,1-.78,3.23,3.23,0,0,1,2-.2,4.25,4.25,0,0,1,.79.26l-0.6.69a11.72,11.72,0,0,0-1,1.28q-1.46,2.2-2.93,4.67t-3,4.94c0.25-.28.5-0.56,0.77-0.83l0.79-.83,1.57-1.59q0.78-.8,1.62-1.52l0.54-.45,0.66-.48a7.36,7.36,0,0,1,.64-0.41,2.6,2.6,0,0,1,.48-0.22,2.25,2.25,0,0,1,.78,0,2.09,2.09,0,0,1,.69.23,1.66,1.66,0,0,1,.49.41,0.78,0.78,0,0,1,.18.48,2.55,2.55,0,0,1-.24.47q-0.24.42-.62,1.06l-0.85,1.43-0.91,1.56q-0.45.77-.83,1.46t-0.58,1.11a2.9,2.9,0,0,0-.36,1.17,1,1,0,0,0,.18.7,0.68,0.68,0,0,0,.58.2,1.67,1.67,0,0,0,.85-0.37,10.93,10.93,0,0,0,2-1.86A13.37,13.37,0,0,0,1446.8,447.38Z" transform="translate(-1350.12 -243.77)"/>
      <path class="cls-3" d="M1452.75,442.32a9.08,9.08,0,0,0-.69,1q-0.39.62-.77,1.28l-0.7,1.28q-0.33.62-.51,1-0.35.77-.67,1.53t-0.57,1.56a4.46,4.46,0,0,0-.18,1.22,0.68,0.68,0,0,0,.28.63,0.91,0.91,0,0,0,.79-0.09,6,6,0,0,0,1.33-1,13.53,13.53,0,0,0,1.48-1.58,11.46,11.46,0,0,0,1.19-1.8,0.48,0.48,0,0,1,.79.39,22,22,0,0,1-1.28,2.06,14.16,14.16,0,0,1-1.58,1.89,7.78,7.78,0,0,1-2.41,1.86,2.31,2.31,0,0,1-1.86.11,1.89,1.89,0,0,1-1.12-1.12A4.25,4.25,0,0,1,1446,451a10.66,10.66,0,0,1,.54-3,15.62,15.62,0,0,1,1.24-2.8q0.44-.79,1-1.61a6.06,6.06,0,0,1,1.22-1.38,1.81,1.81,0,0,1,.62-0.31,2.4,2.4,0,0,1,.78-0.1,2.67,2.67,0,0,1,.78.14A1.19,1.19,0,0,1,1452.75,442.32Zm0-2.32a2,2,0,0,1-.94-0.65,1.38,1.38,0,0,1-.27-1.17,4.88,4.88,0,0,1,.33-1.14,1.1,1.1,0,0,1,.85-0.67,2.33,2.33,0,0,1,.68,0,3.07,3.07,0,0,1,.65.17,1.53,1.53,0,0,1,1,.67,2.21,2.21,0,0,1,.24.62,2.5,2.5,0,0,1-.09,1,1.87,1.87,0,0,1-.48.81,1.73,1.73,0,0,1-.91.46A2.21,2.21,0,0,1,1452.72,440Z" transform="translate(-1350.12 -243.77)"/>
      <path class="cls-3" d="M1458.82,447.09a6.1,6.1,0,0,0,.72-1,8.16,8.16,0,0,0,.58-1.11,6.18,6.18,0,0,0,.35-1,1.3,1.3,0,0,0,0-.73l-0.05-.1-0.67.46a5.08,5.08,0,0,0-.59.51,9.23,9.23,0,0,0-1.53,1.8,10.46,10.46,0,0,0-.9,1.53,7.93,7.93,0,0,0-.6,1.7,2.8,2.8,0,0,0-.05,1.72,1.42,1.42,0,0,0,.82.85,2.39,2.39,0,0,0,1.36.06,5.32,5.32,0,0,0,1.63-.65,9,9,0,0,0,2-1.56,9.71,9.71,0,0,0,1.57-2.2,0.83,0.83,0,0,1,.51-0.07,0.51,0.51,0,0,1,.28.47,12.92,12.92,0,0,1-1.72,2.52,13.55,13.55,0,0,1-2.23,2,7.09,7.09,0,0,1-2.88,1.28,4,4,0,0,1-2.46-.26,3,3,0,0,1-1.5-1.78,5.85,5.85,0,0,1,0-3.27,9.54,9.54,0,0,1,1-2.51,9.83,9.83,0,0,1,1.66-2.14,6.6,6.6,0,0,1,1.18-.9,4.86,4.86,0,0,1,1.36-.56,4.32,4.32,0,0,1,.63-0.1,3,3,0,0,1,.65,0,1.05,1.05,0,0,1,.26-0.11l0.29-.09a2.15,2.15,0,0,1,1.28.14,1.72,1.72,0,0,1,.84.78,2.12,2.12,0,0,1,.2,1,4.44,4.44,0,0,1-.24,1.22,4.38,4.38,0,0,1-.58,1.14,2.44,2.44,0,0,1-.84.77,2.28,2.28,0,0,1-1.11.28A3.14,3.14,0,0,1,1458.82,447.09Z" transform="translate(-1350.12 -243.77)"/>
      <path class="cls-3" d="M1482.72,438.12a6.28,6.28,0,0,1-.32,2.39,7.27,7.27,0,0,1-1.11,2.12,6.8,6.8,0,0,1-.75.78,4.49,4.49,0,0,1-.94.64,3,3,0,0,1-1,.32,2,2,0,0,1-1.08-.19,1.83,1.83,0,0,1-.86-0.75,2.43,2.43,0,0,1-.31-1.05,3.24,3.24,0,0,1,.13-1.15,4.94,4.94,0,0,1,.44-1,7.49,7.49,0,0,1,1.62-1.84,13.09,13.09,0,0,1,2-1.37,12.92,12.92,0,0,1,1.84-.81,12.79,12.79,0,0,1,2-.53,11.1,11.1,0,0,1,2.09-.17,8.79,8.79,0,0,1,2,.26,6.2,6.2,0,0,1,1.68-.72,5,5,0,0,1,1.16-.11,2.81,2.81,0,0,1,1.16.28v0a3.75,3.75,0,0,0-1.37.3,5.43,5.43,0,0,0-1.2.72,5.47,5.47,0,0,1,1.94,1.58A6.77,6.77,0,0,1,1493,440a8.93,8.93,0,0,1,.37,2.49,11,11,0,0,1-.26,2.51,12.67,12.67,0,0,1-.79,2.35,13.22,13.22,0,0,1-1.25,2.2,15.16,15.16,0,0,1-1.62,1.94,13.6,13.6,0,0,1-1.88,1.59,8.7,8.7,0,0,1-2,1,4.29,4.29,0,0,1-2.25.21,3.84,3.84,0,0,1-2.07-1.05,8,8,0,0,1-1.41-1.86,13,13,0,0,1-1.89,1.69,6.65,6.65,0,0,1-2.21,1.08,4.51,4.51,0,0,1-1.53.14,2.67,2.67,0,0,1-1.46-.56,2.48,2.48,0,0,1-.86-1.51,4.77,4.77,0,0,1,.06-1.83,8.67,8.67,0,0,1,.64-1.84,11.06,11.06,0,0,1,.9-1.57,6.82,6.82,0,0,1,1.58-1.59,4.08,4.08,0,0,1,2.07-.75,2.87,2.87,0,0,1,1.68.35,4.7,4.7,0,0,1,1.31,1.11q0.67-1.11,1.35-2.17t1.39-2.1q0.74-1.11,1.53-2.15a21.31,21.31,0,0,1,1.7-2l0.91-.89a6.36,6.36,0,0,0-3-.2,7.45,7.45,0,0,0-2.22.75,9.1,9.1,0,0,0-1.93,1.35,8.4,8.4,0,0,0-.78.84,6.54,6.54,0,0,0-.63.94,1.54,1.54,0,0,0-.24,1.4q0.26,0.43,1.2-.06a4,4,0,0,0,.74-0.48c0.23-.19.45-0.39,0.67-0.6a8.49,8.49,0,0,0,1-1.25C1482.1,439.09,1482.41,438.62,1482.72,438.12ZM1477,450.64q0.42-.47.82-1t0.74-1l-0.39-.84a2.44,2.44,0,0,0-.54-0.74,1.47,1.47,0,0,0-.88-0.39,2.65,2.65,0,0,0-1,.1,3.7,3.7,0,0,0-1,.43,3.8,3.8,0,0,0-.74.6,4.45,4.45,0,0,0-.58.91,5.06,5.06,0,0,0-.42,1.2,3.72,3.72,0,0,0-.06,1.23,1.5,1.5,0,0,0,.49,1,0.75,0.75,0,0,0,.35.16,1.74,1.74,0,0,0,.42,0,1.89,1.89,0,0,0,.43-0.07l0.36-.11a3.76,3.76,0,0,0,1.08-.62A8,8,0,0,0,1477,450.64Zm13.21-9.66a5.53,5.53,0,0,0-.42-1.89,3.54,3.54,0,0,0-1.16-1.47,16.7,16.7,0,0,0-1.09,1.64l-0.91,1.57q-1.16,2-2.23,4a38,38,0,0,1-2.38,3.84l-0.22.32,0.62,1.31,0.46,0.79a3.18,3.18,0,0,0,.53.68,1.72,1.72,0,0,0,.69.41,1.59,1.59,0,0,0,.91,0,3.59,3.59,0,0,0,1.69-1.06,10.07,10.07,0,0,0,1.22-1.6,17.19,17.19,0,0,0,.92-1.9,19.59,19.59,0,0,0,.75-2.15,16.36,16.36,0,0,0,.48-2.25A13.37,13.37,0,0,0,1490.18,441Z" transform="translate(-1350.12 -243.77)"/>
      <path class="cls-3" d="M1497.64,448.64a4.06,4.06,0,0,1-.55,0,4,4,0,0,1-.56-0.06,4.61,4.61,0,0,0-.26,2.27,1.69,1.69,0,0,0,.84,1.23,2.47,2.47,0,0,0,1.69.12,7.32,7.32,0,0,0,2.32-1,8.83,8.83,0,0,0,1.86-1.74,14,14,0,0,0,1.4-2.06,1.26,1.26,0,0,1,.51-0.09q0.23,0,.28.48a13.3,13.3,0,0,1-1.5,2.22,17,17,0,0,1-2,2.1,9.76,9.76,0,0,1-3.51,2,3.5,3.5,0,0,1-3-.3,4.29,4.29,0,0,1-1.44-1.67,4.35,4.35,0,0,1-.46-2.14,6.93,6.93,0,0,1,.38-2.09,10,10,0,0,1,2.33-3.78,7.17,7.17,0,0,1,1.7-1.3,8.29,8.29,0,0,1,2.11-.77,4.66,4.66,0,0,1,2.23,0,2,2,0,0,1,.86.43,1.87,1.87,0,0,1,.51.72,2.08,2.08,0,0,1,.14.88,3.19,3.19,0,0,1-.2.94,4.44,4.44,0,0,1-1.35,1.88A7.88,7.88,0,0,1,1497.64,448.64Zm2.12-4.74a11.34,11.34,0,0,0-1.67,1.8,12.18,12.18,0,0,0-1.27,2.12c0.25-.07.53-0.16,0.84-0.27a10.13,10.13,0,0,0,1.43-.66,6.13,6.13,0,0,0,1.26-.93,6.2,6.2,0,0,0,.91-1,2,2,0,0,0,.37-1.31,0.38,0.38,0,0,0-.25-0.44,1,1,0,0,0-.57.07,3.22,3.22,0,0,0-.62.32C1500,443.71,1499.86,443.82,1499.76,443.9Z" transform="translate(-1350.12 -243.77)"/>
      <path class="cls-3" d="M1512.76,440.1a4.76,4.76,0,0,0-.59,1.23,9.36,9.36,0,0,0-.41,1.74q-0.14,1-.26,2t-0.27,2.07a13,13,0,0,1-.44,2,2,2,0,0,0,1,0,2.86,2.86,0,0,0,.88-0.38,3.42,3.42,0,0,0,.71-0.62,3.72,3.72,0,0,0,.51-0.75,0.49,0.49,0,0,1,.79.39,15.68,15.68,0,0,1-1,1.47,3.49,3.49,0,0,1-1.4,1.12,4,4,0,0,1-1.11.37,5.41,5.41,0,0,1-1.16.07,7.16,7.16,0,0,1-1.46,1.65,5.93,5.93,0,0,1-1.93,1,6.45,6.45,0,0,1-2.3.36,3.8,3.8,0,0,1-2-.62,2.69,2.69,0,0,1-1.1-1.91,3.3,3.3,0,0,1,0-1.12,3.78,3.78,0,0,1,.36-1.06,4.24,4.24,0,0,1,.64-0.93,3.94,3.94,0,0,1,.88-0.72,3.89,3.89,0,0,1,2-.52l1-1.38,1.09-1.43,1-1.41,1-1.28a4,4,0,0,1,.37-0.59,2,2,0,0,1,.54-0.49,3.19,3.19,0,0,1,.77-0.36,2.91,2.91,0,0,1,.9-0.14A2.62,2.62,0,0,1,1512.76,440.1Zm-6,11a3.88,3.88,0,0,0,.52-0.89,8.24,8.24,0,0,1-1.21-.52q-0.32-.15-0.72-0.3a3.06,3.06,0,0,0-.8-0.19,2,2,0,0,0-.78.07,1.49,1.49,0,0,0-.67.43,1.9,1.9,0,0,0-.31.58,1.47,1.47,0,0,0-.06.68,1.58,1.58,0,0,0,.55,1.07,1.74,1.74,0,0,0,1.06.37,2.64,2.64,0,0,0,1.26-.32A3.3,3.3,0,0,0,1506.75,451.11Zm1.8-7.09-1.15,1.52-1.2,1.57q0.47,0.12,1,.3l0.94,0.42a13.39,13.39,0,0,0,.26-1.9Q1508.43,445,1508.56,444Z" transform="translate(-1350.12 -243.77)"/>
      <path class="cls-3" d="M1519.82,442.32a9.08,9.08,0,0,0-.69,1q-0.39.62-.77,1.28l-0.7,1.28q-0.33.62-.51,1-0.35.77-.67,1.53t-0.57,1.56a4.46,4.46,0,0,0-.18,1.22,0.68,0.68,0,0,0,.28.63,0.91,0.91,0,0,0,.79-0.09,6,6,0,0,0,1.33-1,13.53,13.53,0,0,0,1.48-1.58,11.46,11.46,0,0,0,1.19-1.8,0.48,0.48,0,0,1,.79.39,22,22,0,0,1-1.28,2.06,14.16,14.16,0,0,1-1.58,1.89,7.78,7.78,0,0,1-2.41,1.86,2.31,2.31,0,0,1-1.86.11,1.89,1.89,0,0,1-1.12-1.12,4.25,4.25,0,0,1-.26-1.59,10.66,10.66,0,0,1,.54-3,15.62,15.62,0,0,1,1.24-2.8q0.44-.79,1-1.61a6.06,6.06,0,0,1,1.22-1.38,1.81,1.81,0,0,1,.62-0.31,2.4,2.4,0,0,1,.78-0.1,2.67,2.67,0,0,1,.78.14A1.19,1.19,0,0,1,1519.82,442.32Zm0-2.32a2,2,0,0,1-.94-0.65,1.38,1.38,0,0,1-.27-1.17,4.88,4.88,0,0,1,.33-1.14,1.1,1.1,0,0,1,.85-0.67,2.33,2.33,0,0,1,.68,0,3.07,3.07,0,0,1,.65.17,1.53,1.53,0,0,1,1,.67,2.21,2.21,0,0,1,.24.62,2.5,2.5,0,0,1-.09,1,1.87,1.87,0,0,1-.48.81,1.73,1.73,0,0,1-.91.46A2.21,2.21,0,0,1,1519.79,440Z" transform="translate(-1350.12 -243.77)"/>
      <path class="cls-3" d="M1534.16,442q-0.17.27-.53,1t-0.83,1.69l-1,2.09-1,2.14-0.9,1.88q-0.41.85-.63,1.3l-1.53,3a5.2,5.2,0,0,1,.65.14l0.66,0.16q0.62,0.15,1.28.35t1.33,0.35q0.67,0.15,1.33.24a5.59,5.59,0,0,0,1.33,0,5.36,5.36,0,0,0,.91-0.2,2.1,2.1,0,0,0,.84-0.47,0.94,0.94,0,0,1,0,.6,2.22,2.22,0,0,1-.31.61,4.86,4.86,0,0,1-.46.56,2.89,2.89,0,0,1-.47.41,4.43,4.43,0,0,1-1.13.58,6.34,6.34,0,0,1-1.26.3,8.67,8.67,0,0,1-1.31.07,12.61,12.61,0,0,1-1.27-.09,16.27,16.27,0,0,1-1.86-.36c-0.62-.16-1.23-0.33-1.84-0.51a13.83,13.83,0,0,1-1.36,1.84,6.7,6.7,0,0,1-1.78,1.44,4.34,4.34,0,0,1-2,.57,3.94,3.94,0,0,1-1.93-.37,3.23,3.23,0,0,1-1.4-1.28,3.34,3.34,0,0,1-.37-2.15,3.43,3.43,0,0,1,1-2.11,4.44,4.44,0,0,1,1.86-1.07,7.88,7.88,0,0,1,2.33-.31,16.35,16.35,0,0,1,2.36.18L1526,452a7.59,7.59,0,0,1-1,1,4.56,4.56,0,0,1-1.2.7,2.69,2.69,0,0,1-1.3.17,2.45,2.45,0,0,1-1.31-.62,3,3,0,0,1-.86-1.15,4.07,4.07,0,0,1-.31-1.36,5.18,5.18,0,0,1,.12-1.42,7.9,7.9,0,0,1,.43-1.36,12.86,12.86,0,0,1,3.58-4.87,7.07,7.07,0,0,1,1.36-.86,5.64,5.64,0,0,1,1.62-.53,3.39,3.39,0,0,1,1.58.1,2.25,2.25,0,0,1,1.25,1,2.38,2.38,0,0,1,.3.89,6.67,6.67,0,0,1,.8-0.85,4.78,4.78,0,0,1,1-.65,2.29,2.29,0,0,1,.47-0.18,4.76,4.76,0,0,1,.62-0.14,2.55,2.55,0,0,1,.6,0A0.92,0.92,0,0,1,1534.16,442Zm-12.35,17.56a4.21,4.21,0,0,0,1.07-1.15,13.22,13.22,0,0,0,.78-1.4l-1.12-.27q-0.55-.12-1.12-0.2a3,3,0,0,0-1,0,2.32,2.32,0,0,0-.86.33,1.87,1.87,0,0,0-.62.66,1.69,1.69,0,0,0-.19,1,1.39,1.39,0,0,0,.36.94,1.68,1.68,0,0,0,.8.47,2,2,0,0,0,1,0A2.32,2.32,0,0,0,1521.82,459.56Zm5.66-10.94q0.67-1.46,1.41-2.79a3.25,3.25,0,0,0,.17-0.49,2.85,2.85,0,0,0,.06-0.7A1.75,1.75,0,0,0,1529,444a1.15,1.15,0,0,0-.37-0.47,1.14,1.14,0,0,0-.69-0.18,2.26,2.26,0,0,0-1.36.52,7.79,7.79,0,0,0-1.06,1,11.24,11.24,0,0,0-.9,1.18q-0.41.62-.75,1.26-0.15.3-.43,1a8.08,8.08,0,0,0-.44,1.37,3.33,3.33,0,0,0-.06,1.28,0.83,0.83,0,0,0,.74.7,1.84,1.84,0,0,0,1.37-.31,7.13,7.13,0,0,0,1.12-.9l0.42-.44c0.13-.15.26-0.31,0.4-0.49a3.75,3.75,0,0,0,.27-0.42Z" transform="translate(-1350.12 -243.77)"/>
      <path class="cls-3" d="M1546.51,447.38q0.77-.32.79,0.39a25.46,25.46,0,0,1-1.61,2.65,14.8,14.8,0,0,1-2,2.28,6.72,6.72,0,0,1-1.09.83,4.45,4.45,0,0,1-1.26.54,2.84,2.84,0,0,1-1.28,0,2.09,2.09,0,0,1-1.16-.75,2.15,2.15,0,0,1-.54-1.14,4.31,4.31,0,0,1,0-1.33,7.82,7.82,0,0,1,.35-1.36q0.24-.67.46-1.23a16.23,16.23,0,0,1,1.15-2.14,21.55,21.55,0,0,0,1.2-2.14q-0.72.57-1.54,1.33a15,15,0,0,0-1.39,1.46q-0.74.89-1.41,1.82t-1.31,1.89l-0.62,1c-0.2.32-.39,0.65-0.57,1l-0.37.56a0.65,0.65,0,0,1-.62.31,1.16,1.16,0,0,1-.59-0.17,2.38,2.38,0,0,1-.53-0.42,2.1,2.1,0,0,1-.37-0.53,0.79,0.79,0,0,1-.09-0.51,12.37,12.37,0,0,1,1.35-3.47q0.95-1.67,1.94-3.22,0.42-.64.8-1.33a12.58,12.58,0,0,1,.85-1.33,1.15,1.15,0,0,1,.58-0.44,1.3,1.3,0,0,1,1,.25,2.32,2.32,0,0,1,.46.33,0.54,0.54,0,0,1,.16.39,1.29,1.29,0,0,1-.19.58,8.07,8.07,0,0,1-.55.86,11.92,11.92,0,0,0-.73,1.14q-0.38.67-.65,1.21l1-1.06q0.55-.62,1.17-1.23t1.25-1.14a6.45,6.45,0,0,1,1.17-.79,2.82,2.82,0,0,1,3.19.54,0.43,0.43,0,0,1,.17.33,1.57,1.57,0,0,1-.15.38,9.59,9.59,0,0,1-.52,1c-0.2.36-.4,0.72-0.62,1.07s-0.42.72-.62,1.1l-0.9,1.62a15.3,15.3,0,0,0-.83,1.69,2.45,2.45,0,0,0-.21,1.48,0.61,0.61,0,0,0,.64.46,2.47,2.47,0,0,0,1.2-.48,6.86,6.86,0,0,0,1.46-1.36q0.52-.64,1-1.36A17.55,17.55,0,0,0,1546.51,447.38Z" transform="translate(-1350.12 -243.77)"/>
      <path class="cls-3" d="M1550.12,448.64a4.06,4.06,0,0,1-.55,0,4,4,0,0,1-.56-0.06,4.61,4.61,0,0,0-.26,2.27,1.69,1.69,0,0,0,.84,1.23,2.47,2.47,0,0,0,1.69.12,7.32,7.32,0,0,0,2.32-1,8.83,8.83,0,0,0,1.86-1.74,14,14,0,0,0,1.4-2.06,1.26,1.26,0,0,1,.51-0.09q0.23,0,.28.48a13.3,13.3,0,0,1-1.5,2.22,17,17,0,0,1-2,2.1,9.76,9.76,0,0,1-3.51,2,3.5,3.5,0,0,1-3-.3,4.29,4.29,0,0,1-1.44-1.67,4.35,4.35,0,0,1-.46-2.14,6.93,6.93,0,0,1,.38-2.09,10,10,0,0,1,2.33-3.78,7.17,7.17,0,0,1,1.7-1.3,8.29,8.29,0,0,1,2.11-.77,4.66,4.66,0,0,1,2.23,0,2,2,0,0,1,.86.43,1.87,1.87,0,0,1,.51.72,2.08,2.08,0,0,1,.14.88,3.19,3.19,0,0,1-.2.94,4.44,4.44,0,0,1-1.35,1.88A7.88,7.88,0,0,1,1550.12,448.64Zm2.12-4.74a11.34,11.34,0,0,0-1.67,1.8,12.18,12.18,0,0,0-1.27,2.12c0.25-.07.53-0.16,0.84-0.27a10.13,10.13,0,0,0,1.43-.66,6.13,6.13,0,0,0,1.26-.93,6.2,6.2,0,0,0,.91-1,2,2,0,0,0,.37-1.31,0.38,0.38,0,0,0-.25-0.44,1,1,0,0,0-.57.07,3.22,3.22,0,0,0-.62.32C1552.49,443.71,1552.34,443.82,1552.24,443.9Z" transform="translate(-1350.12 -243.77)"/>
      <path class="cls-3" d="M1553.79,451.56a27,27,0,0,0,2.72-3.72,24.61,24.61,0,0,0,2-4.26,2,2,0,0,1-.25-1.14,2.42,2.42,0,0,1,.28-1,1.36,1.36,0,0,1,.6-0.59,0.72,0.72,0,0,1,.74.07,0.73,0.73,0,0,1,.35.78,4.51,4.51,0,0,1-.27,1,0.81,0.81,0,0,0,.41.1h0.41a5.22,5.22,0,0,0,1.19-.22,2.44,2.44,0,0,1,.64-0.68,0.6,0.6,0,0,1,.72.16,2.71,2.71,0,0,1,1.12,1.44,1.39,1.39,0,0,1-.43,1.27q-0.94,1.21-1.83,2.59a13.83,13.83,0,0,0-1.33,2.57,3.37,3.37,0,0,0-.27,1.4,0.78,0.78,0,0,0,.37.69,1.06,1.06,0,0,0,.85,0,3.92,3.92,0,0,0,1.17-.77,12.15,12.15,0,0,0,1.51-1.68,15.24,15.24,0,0,0,1.38-2.17,0.48,0.48,0,0,1,.55,0,0.58,0.58,0,0,1,.24.43q-0.67,1.26-1.37,2.32a13.1,13.1,0,0,1-1.67,2,5.74,5.74,0,0,1-1.6,1.17,4.35,4.35,0,0,1-1.56.43,2.57,2.57,0,0,1-1.33-.25,2.24,2.24,0,0,1-.94-0.88,2.91,2.91,0,0,1-.37-1.43,5.07,5.07,0,0,1,.39-1.94,17.7,17.7,0,0,1,1.24-2.59,19,19,0,0,1,1.43-2.17,1,1,0,0,1-.27,0,4.31,4.31,0,0,1-.57-0.11,4.48,4.48,0,0,1-.69-0.23c-0.18.48-.41,1-0.69,1.69s-0.61,1.32-1,2-0.63,1.14-1,1.63a7.56,7.56,0,0,1-1,1.23,3.76,3.76,0,0,1-1,.74A1.54,1.54,0,0,1,1553.79,451.56Z" transform="translate(-1350.12 -243.77)"/>
    </g>
  </g>
</svg>
