<svg id="Layer_2" data-name="Layer 2" xmlns="http://www.w3.org/2000/svg" viewBox="0 0 45.71 45.71">
  <defs>
    <style>
      .cls-1 {
        fill: #fff;
      }
    </style>
  </defs>
  <title>SEO</title>
  <g>
    <path class="cls-1" d="M1368.4,1411.32a0.89,0.89,0,1,0,.89.89A0.89,0.89,0,0,0,1368.4,1411.32Z" transform="translate(-1340.72 -1394.36)"/>
    <path class="cls-1" d="M1385.38,1434l-11.92-11.92a17.69,17.69,0,0,0,3-9.84,17.85,17.85,0,1,0-17.85,17.85,17.69,17.69,0,0,0,9.84-3l3.29,3.29h0l8.62,8.62A3.57,3.57,0,1,0,1385.38,1434Zm-17.38-8.75h0a16.08,16.08,0,1,1,3.59-3.59A16.15,16.15,0,0,1,1368,1425.22Zm1.87,0.81a17.91,17.91,0,0,0,2.52-2.52l2.53,2.53a21.67,21.67,0,0,1-2.52,2.52Zm14.25,11.73a1.78,1.78,0,0,1-2.52,0l-7.93-7.93a23.46,23.46,0,0,0,2.52-2.52l7.93,7.93A1.78,1.78,0,0,1,1384.12,1437.75Z" transform="translate(-1340.72 -1394.36)"/>
    <path class="cls-1" d="M1358.58,1397.93a14.28,14.28,0,1,0,14.28,14.28A14.3,14.3,0,0,0,1358.58,1397.93Zm0,26.78a12.5,12.5,0,1,1,12.5-12.5A12.51,12.51,0,0,1,1358.58,1424.71Z" transform="translate(-1340.72 -1394.36)"/>
    <path class="cls-1" d="M1368.58,1408.38a10.73,10.73,0,0,0-10-6.88,0.89,0.89,0,1,0,0,1.79,9,9,0,0,1,8.34,5.74A0.89,0.89,0,1,0,1368.58,1408.38Z" transform="translate(-1340.72 -1394.36)"/>
  </g>
</svg>
