<svg id="Layer_2" data-name="Layer 2" xmlns="http://www.w3.org/2000/svg" viewBox="0 0 48.57 46.63">
  <defs>
    <style>
      .cls-1 {
        fill: #fff;
      }
    </style>
  </defs>
  <title>UX-UI</title>
  <g>
    <path class="cls-1" d="M1384.34,1147h-46.67a1,1,0,0,0-.95.95v9.76a1,1,0,0,0,.95.95h46.67a1,1,0,0,0,.95-0.95v-9.76A1,1,0,0,0,1384.34,1147Zm-0.95,9.76h-44.78v-7.86h44.78v7.86Z" transform="translate(-1336.71 -1146.98)"/>
    <path class="cls-1" d="M1381.24,1154.58l-0.77-.77a3,3,0,1,0-1.34,1.34l0.77,0.77A0.95,0.95,0,1,0,1381.24,1154.58Zm-2.68-1.34a1.13,1.13,0,1,1,.33-0.8A1.13,1.13,0,0,1,1378.56,1153.25Z" transform="translate(-1336.71 -1146.98)"/>
    <path class="cls-1" d="M1370.71,1154.34a1,1,0,0,0-.05-0.18,1,1,0,0,0-.09-0.16l-0.12-.14-0.14-.12-0.16-.09-0.18-.05a0.94,0.94,0,0,0-.37,0l-0.18.05-0.16.09-0.15.12-0.12.14a1,1,0,0,0-.09.16,1,1,0,0,0-.05.18,1,1,0,0,0,0,.37,1,1,0,0,0,.05.18,1,1,0,0,0,.09.16l0.12,0.14,0.15,0.12,0.16,0.09,0.18,0.05,0.19,0,0.18,0,0.18-.05,0.16-.09,0.14-.12a1,1,0,0,0,.28-0.67A0.94,0.94,0,0,0,1370.71,1154.34Z" transform="translate(-1336.71 -1146.98)"/>
    <path class="cls-1" d="M1366.18,1153.58h-19.72a0.95,0.95,0,0,0,0,1.9h19.72A0.95,0.95,0,0,0,1366.18,1153.58Z" transform="translate(-1336.71 -1146.98)"/>
    <path class="cls-1" d="M1366.58,1160h-28.8a1,1,0,0,0-.95.95v18.71a1,1,0,0,0,.95.95h28.8a1,1,0,0,0,.95-0.95v-18.71A1,1,0,0,0,1366.58,1160Zm-18.31,18.71h-8.05l5.42-6.28,3.93,4.55Zm2.37,0,1.77-2.36h4.6a0.95,0.95,0,1,0,0-1.9h-3.18l0.67-.89h6l3.86,5.14h-13.67Zm5.28-7,1.56-2.07,1.56,2.07h-3.11Zm9.71,5.64-7.4-9.86a0.95,0.95,0,0,0-1.52,0l-6,8-4.37-5.07a0.95,0.95,0,0,0-1.44,0l-6.2,7.18v-15.64h26.91v15.41Z" transform="translate(-1336.71 -1146.98)"/>
    <path class="cls-1" d="M1349.77,1163a3.35,3.35,0,1,0,3.35,3.35A3.36,3.36,0,0,0,1349.77,1163Zm0,4.81a1.46,1.46,0,1,1,1.46-1.46A1.46,1.46,0,0,1,1349.77,1167.78Z" transform="translate(-1336.71 -1146.98)"/>
    <path class="cls-1" d="M1384.34,1160h-14.58a1,1,0,0,0-.95.95v18.71a1,1,0,0,0,.95.95h14.58a1,1,0,0,0,.95-0.95v-18.71A1,1,0,0,0,1384.34,1160Zm-0.95,18.71h-12.68v-16.81h12.68v16.81Z" transform="translate(-1336.71 -1146.98)"/>
    <path class="cls-1" d="M1381.18,1163.45h-8.26a0.95,0.95,0,0,0,0,1.9h8.26A0.95,0.95,0,0,0,1381.18,1163.45Z" transform="translate(-1336.71 -1146.98)"/>
    <path class="cls-1" d="M1381.18,1167.25h-8.26a0.95,0.95,0,0,0,0,1.9h8.26A0.95,0.95,0,0,0,1381.18,1167.25Z" transform="translate(-1336.71 -1146.98)"/>
    <path class="cls-1" d="M1381.18,1171.06h-8.26a0.95,0.95,0,0,0,0,1.9h8.26A0.95,0.95,0,0,0,1381.18,1171.06Z" transform="translate(-1336.71 -1146.98)"/>
    <path class="cls-1" d="M1373.84,1175.63a1,1,0,0,0-.05-0.18,1,1,0,0,0-.09-0.16,0.95,0.95,0,0,0-1-.4l-0.18.05-0.16.09-0.14.12-0.12.14a1,1,0,0,0-.09.16,1,1,0,0,0-.05.18,0.92,0.92,0,0,0,0,.37,1,1,0,0,0,.05.18,1,1,0,0,0,.09.16l0.12,0.14,0.14,0.12,0.16,0.09,0.18,0.05,0.19,0a1,1,0,0,0,.67-0.28l0.12-.14a1,1,0,0,0,.09-0.16,1,1,0,0,0,.05-0.18A1,1,0,0,0,1373.84,1175.63Z" transform="translate(-1336.71 -1146.98)"/>
    <path class="cls-1" d="M1381.18,1174.87h-4.67a0.95,0.95,0,1,0,0,1.9h4.67A0.95,0.95,0,0,0,1381.18,1174.87Z" transform="translate(-1336.71 -1146.98)"/>
    <path class="cls-1" d="M1352.35,1181.94h-14.58a1,1,0,0,0-.95.95v9.77a1,1,0,0,0,.95.95h14.58a1,1,0,0,0,.95-0.95v-9.77A1,1,0,0,0,1352.35,1181.94Zm-0.95,9.77h-12.68v-7.87h12.68v7.87Z" transform="translate(-1336.71 -1146.98)"/>
    <path class="cls-1" d="M1384.34,1181.94h-28.67a1,1,0,0,0-.95.95v9.77a1,1,0,0,0,.95.95h28.67a1,1,0,0,0,.95-0.95v-9.77A1,1,0,0,0,1384.34,1181.94Zm-0.95,9.77h-26.78v-7.87h26.78v7.87h0Z" transform="translate(-1336.71 -1146.98)"/>
    <path class="cls-1" d="M1360.93,1187.59a1,1,0,0,0-.05-0.18,0.94,0.94,0,0,0-.09-0.16,0.9,0.9,0,0,0-.12-0.14l-0.14-.12-0.16-.09-0.18-.06a1,1,0,0,0-.37,0l-0.18.06-0.16.09-0.14.12-0.12.14a0.94,0.94,0,0,0-.09.16,1,1,0,0,0-.05.18,1,1,0,0,0,0,.37,1,1,0,0,0,.05.18,1,1,0,0,0,.09.16l0.12,0.14a1,1,0,0,0,.67.28l0.18,0,0.18-.06,0.16-.09,0.14-.12a0.91,0.91,0,0,0,.12-0.14,1,1,0,0,0,.09-0.16,1,1,0,0,0,.05-0.18A0.91,0.91,0,0,0,1360.93,1187.59Z" transform="translate(-1336.71 -1146.98)"/>
    <path class="cls-1" d="M1379.53,1186.82H1363.6a0.95,0.95,0,0,0,0,1.9h15.93A0.95,0.95,0,1,0,1379.53,1186.82Z" transform="translate(-1336.71 -1146.98)"/>
  </g>
</svg>
